<?xml version="1.0" encoding="utf-8" standalone="no"?>
<!DOCTYPE svg PUBLIC "-//W3C//DTD SVG 1.1//EN"
  "http://www.w3.org/Graphics/SVG/1.1/DTD/svg11.dtd">
<!-- Created with matplotlib (https://matplotlib.org/) -->
<svg height="325.986375pt" version="1.1" viewBox="0 0 431.727487 325.986375" width="431.727487pt" xmlns="http://www.w3.org/2000/svg" xmlns:xlink="http://www.w3.org/1999/xlink">
 <defs>
  <style type="text/css">
*{stroke-linecap:butt;stroke-linejoin:round;}
  </style>
 </defs>
 <g id="figure_1">
  <g id="patch_1">
   <path d="M 0 325.986375 
L 431.727487 325.986375 
L 431.727487 0 
L 0 0 
z
" style="fill:#ffffff;"/>
  </g>
  <g id="axes_1">
   <g id="patch_2">
    <path d="M 61.707813 288.430125 
L 418.827813 288.430125 
L 418.827813 22.318125 
L 61.707813 22.318125 
z
" style="fill:#ffffff;"/>
   </g>
   <g id="matplotlib.axis_1">
    <g id="xtick_1">
     <g id="line2d_1">
      <path clip-path="url(#paf5b64d419)" d="M 72.017892 288.430125 
L 72.017892 22.318125 
" style="fill:none;stroke:#b0b0b0;stroke-linecap:square;stroke-width:0.8;"/>
     </g>
     <g id="line2d_2">
      <defs>
       <path d="M 0 0 
L 0 3.5 
" id="m9bedf1baae" style="stroke:#000000;stroke-width:0.8;"/>
      </defs>
      <g>
       <use style="stroke:#000000;stroke-width:0.8;" x="72.017892" xlink:href="#m9bedf1baae" y="288.430125"/>
      </g>
     </g>
     <g id="text_1">
      <!-- 780 -->
      <defs>
       <path d="M 8.203125 72.90625 
L 55.078125 72.90625 
L 55.078125 68.703125 
L 28.609375 0 
L 18.3125 0 
L 43.21875 64.59375 
L 8.203125 64.59375 
z
" id="DejaVuSans-55"/>
       <path d="M 31.78125 34.625 
Q 24.75 34.625 20.71875 30.859375 
Q 16.703125 27.09375 16.703125 20.515625 
Q 16.703125 13.921875 20.71875 10.15625 
Q 24.75 6.390625 31.78125 6.390625 
Q 38.8125 6.390625 42.859375 10.171875 
Q 46.921875 13.96875 46.921875 20.515625 
Q 46.921875 27.09375 42.890625 30.859375 
Q 38.875 34.625 31.78125 34.625 
z
M 21.921875 38.8125 
Q 15.578125 40.375 12.03125 44.71875 
Q 8.5 49.078125 8.5 55.328125 
Q 8.5 64.0625 14.71875 69.140625 
Q 20.953125 74.21875 31.78125 74.21875 
Q 42.671875 74.21875 48.875 69.140625 
Q 55.078125 64.0625 55.078125 55.328125 
Q 55.078125 49.078125 51.53125 44.71875 
Q 48 40.375 41.703125 38.8125 
Q 48.828125 37.15625 52.796875 32.3125 
Q 56.78125 27.484375 56.78125 20.515625 
Q 56.78125 9.90625 50.3125 4.234375 
Q 43.84375 -1.421875 31.78125 -1.421875 
Q 19.734375 -1.421875 13.25 4.234375 
Q 6.78125 9.90625 6.78125 20.515625 
Q 6.78125 27.484375 10.78125 32.3125 
Q 14.796875 37.15625 21.921875 38.8125 
z
M 18.3125 54.390625 
Q 18.3125 48.734375 21.84375 45.5625 
Q 25.390625 42.390625 31.78125 42.390625 
Q 38.140625 42.390625 41.71875 45.5625 
Q 45.3125 48.734375 45.3125 54.390625 
Q 45.3125 60.0625 41.71875 63.234375 
Q 38.140625 66.40625 31.78125 66.40625 
Q 25.390625 66.40625 21.84375 63.234375 
Q 18.3125 60.0625 18.3125 54.390625 
z
" id="DejaVuSans-56"/>
       <path d="M 31.78125 66.40625 
Q 24.171875 66.40625 20.328125 58.90625 
Q 16.5 51.421875 16.5 36.375 
Q 16.5 21.390625 20.328125 13.890625 
Q 24.171875 6.390625 31.78125 6.390625 
Q 39.453125 6.390625 43.28125 13.890625 
Q 47.125 21.390625 47.125 36.375 
Q 47.125 51.421875 43.28125 58.90625 
Q 39.453125 66.40625 31.78125 66.40625 
z
M 31.78125 74.21875 
Q 44.046875 74.21875 50.515625 64.515625 
Q 56.984375 54.828125 56.984375 36.375 
Q 56.984375 17.96875 50.515625 8.265625 
Q 44.046875 -1.421875 31.78125 -1.421875 
Q 19.53125 -1.421875 13.0625 8.265625 
Q 6.59375 17.96875 6.59375 36.375 
Q 6.59375 54.828125 13.0625 64.515625 
Q 19.53125 74.21875 31.78125 74.21875 
z
" id="DejaVuSans-48"/>
      </defs>
      <g transform="translate(62.474142 303.028562)scale(0.1 -0.1)">
       <use xlink:href="#DejaVuSans-55"/>
       <use x="63.623047" xlink:href="#DejaVuSans-56"/>
       <use x="127.246094" xlink:href="#DejaVuSans-48"/>
      </g>
     </g>
    </g>
    <g id="xtick_2">
     <g id="line2d_3">
      <path clip-path="url(#paf5b64d419)" d="M 140.611061 288.430125 
L 140.611061 22.318125 
" style="fill:none;stroke:#b0b0b0;stroke-linecap:square;stroke-width:0.8;"/>
     </g>
     <g id="line2d_4">
      <g>
       <use style="stroke:#000000;stroke-width:0.8;" x="140.611061" xlink:href="#m9bedf1baae" y="288.430125"/>
      </g>
     </g>
     <g id="text_2">
      <!-- 800 -->
      <g transform="translate(131.067311 303.028562)scale(0.1 -0.1)">
       <use xlink:href="#DejaVuSans-56"/>
       <use x="63.623047" xlink:href="#DejaVuSans-48"/>
       <use x="127.246094" xlink:href="#DejaVuSans-48"/>
      </g>
     </g>
    </g>
    <g id="xtick_3">
     <g id="line2d_5">
      <path clip-path="url(#paf5b64d419)" d="M 209.20423 288.430125 
L 209.20423 22.318125 
" style="fill:none;stroke:#b0b0b0;stroke-linecap:square;stroke-width:0.8;"/>
     </g>
     <g id="line2d_6">
      <g>
       <use style="stroke:#000000;stroke-width:0.8;" x="209.20423" xlink:href="#m9bedf1baae" y="288.430125"/>
      </g>
     </g>
     <g id="text_3">
      <!-- 820 -->
      <defs>
       <path d="M 19.1875 8.296875 
L 53.609375 8.296875 
L 53.609375 0 
L 7.328125 0 
L 7.328125 8.296875 
Q 12.9375 14.109375 22.625 23.890625 
Q 32.328125 33.6875 34.8125 36.53125 
Q 39.546875 41.84375 41.421875 45.53125 
Q 43.3125 49.21875 43.3125 52.78125 
Q 43.3125 58.59375 39.234375 62.25 
Q 35.15625 65.921875 28.609375 65.921875 
Q 23.96875 65.921875 18.8125 64.3125 
Q 13.671875 62.703125 7.8125 59.421875 
L 7.8125 69.390625 
Q 13.765625 71.78125 18.9375 73 
Q 24.125 74.21875 28.421875 74.21875 
Q 39.75 74.21875 46.484375 68.546875 
Q 53.21875 62.890625 53.21875 53.421875 
Q 53.21875 48.921875 51.53125 44.890625 
Q 49.859375 40.875 45.40625 35.40625 
Q 44.1875 33.984375 37.640625 27.21875 
Q 31.109375 20.453125 19.1875 8.296875 
z
" id="DejaVuSans-50"/>
      </defs>
      <g transform="translate(199.66048 303.028562)scale(0.1 -0.1)">
       <use xlink:href="#DejaVuSans-56"/>
       <use x="63.623047" xlink:href="#DejaVuSans-50"/>
       <use x="127.246094" xlink:href="#DejaVuSans-48"/>
      </g>
     </g>
    </g>
    <g id="xtick_4">
     <g id="line2d_7">
      <path clip-path="url(#paf5b64d419)" d="M 277.797399 288.430125 
L 277.797399 22.318125 
" style="fill:none;stroke:#b0b0b0;stroke-linecap:square;stroke-width:0.8;"/>
     </g>
     <g id="line2d_8">
      <g>
       <use style="stroke:#000000;stroke-width:0.8;" x="277.797399" xlink:href="#m9bedf1baae" y="288.430125"/>
      </g>
     </g>
     <g id="text_4">
      <!-- 840 -->
      <defs>
       <path d="M 37.796875 64.3125 
L 12.890625 25.390625 
L 37.796875 25.390625 
z
M 35.203125 72.90625 
L 47.609375 72.90625 
L 47.609375 25.390625 
L 58.015625 25.390625 
L 58.015625 17.1875 
L 47.609375 17.1875 
L 47.609375 0 
L 37.796875 0 
L 37.796875 17.1875 
L 4.890625 17.1875 
L 4.890625 26.703125 
z
" id="DejaVuSans-52"/>
      </defs>
      <g transform="translate(268.253649 303.028562)scale(0.1 -0.1)">
       <use xlink:href="#DejaVuSans-56"/>
       <use x="63.623047" xlink:href="#DejaVuSans-52"/>
       <use x="127.246094" xlink:href="#DejaVuSans-48"/>
      </g>
     </g>
    </g>
    <g id="xtick_5">
     <g id="line2d_9">
      <path clip-path="url(#paf5b64d419)" d="M 346.390568 288.430125 
L 346.390568 22.318125 
" style="fill:none;stroke:#b0b0b0;stroke-linecap:square;stroke-width:0.8;"/>
     </g>
     <g id="line2d_10">
      <g>
       <use style="stroke:#000000;stroke-width:0.8;" x="346.390568" xlink:href="#m9bedf1baae" y="288.430125"/>
      </g>
     </g>
     <g id="text_5">
      <!-- 860 -->
      <defs>
       <path d="M 33.015625 40.375 
Q 26.375 40.375 22.484375 35.828125 
Q 18.609375 31.296875 18.609375 23.390625 
Q 18.609375 15.53125 22.484375 10.953125 
Q 26.375 6.390625 33.015625 6.390625 
Q 39.65625 6.390625 43.53125 10.953125 
Q 47.40625 15.53125 47.40625 23.390625 
Q 47.40625 31.296875 43.53125 35.828125 
Q 39.65625 40.375 33.015625 40.375 
z
M 52.59375 71.296875 
L 52.59375 62.3125 
Q 48.875 64.0625 45.09375 64.984375 
Q 41.3125 65.921875 37.59375 65.921875 
Q 27.828125 65.921875 22.671875 59.328125 
Q 17.53125 52.734375 16.796875 39.40625 
Q 19.671875 43.65625 24.015625 45.921875 
Q 28.375 48.1875 33.59375 48.1875 
Q 44.578125 48.1875 50.953125 41.515625 
Q 57.328125 34.859375 57.328125 23.390625 
Q 57.328125 12.15625 50.6875 5.359375 
Q 44.046875 -1.421875 33.015625 -1.421875 
Q 20.359375 -1.421875 13.671875 8.265625 
Q 6.984375 17.96875 6.984375 36.375 
Q 6.984375 53.65625 15.1875 63.9375 
Q 23.390625 74.21875 37.203125 74.21875 
Q 40.921875 74.21875 44.703125 73.484375 
Q 48.484375 72.75 52.59375 71.296875 
z
" id="DejaVuSans-54"/>
      </defs>
      <g transform="translate(336.846818 303.028562)scale(0.1 -0.1)">
       <use xlink:href="#DejaVuSans-56"/>
       <use x="63.623047" xlink:href="#DejaVuSans-54"/>
       <use x="127.246094" xlink:href="#DejaVuSans-48"/>
      </g>
     </g>
    </g>
    <g id="xtick_6">
     <g id="line2d_11">
      <path clip-path="url(#paf5b64d419)" d="M 414.983737 288.430125 
L 414.983737 22.318125 
" style="fill:none;stroke:#b0b0b0;stroke-linecap:square;stroke-width:0.8;"/>
     </g>
     <g id="line2d_12">
      <g>
       <use style="stroke:#000000;stroke-width:0.8;" x="414.983737" xlink:href="#m9bedf1baae" y="288.430125"/>
      </g>
     </g>
     <g id="text_6">
      <!-- 880 -->
      <g transform="translate(405.439987 303.028562)scale(0.1 -0.1)">
       <use xlink:href="#DejaVuSans-56"/>
       <use x="63.623047" xlink:href="#DejaVuSans-56"/>
       <use x="127.246094" xlink:href="#DejaVuSans-48"/>
      </g>
     </g>
    </g>
    <g id="text_7">
     <!-- F1 -->
     <defs>
      <path d="M 9.8125 72.90625 
L 51.703125 72.90625 
L 51.703125 64.59375 
L 19.671875 64.59375 
L 19.671875 43.109375 
L 48.578125 43.109375 
L 48.578125 34.8125 
L 19.671875 34.8125 
L 19.671875 0 
L 9.8125 0 
z
" id="DejaVuSans-70"/>
      <path d="M 12.40625 8.296875 
L 28.515625 8.296875 
L 28.515625 63.921875 
L 10.984375 60.40625 
L 10.984375 69.390625 
L 28.421875 72.90625 
L 38.28125 72.90625 
L 38.28125 8.296875 
L 54.390625 8.296875 
L 54.390625 0 
L 12.40625 0 
z
" id="DejaVuSans-49"/>
     </defs>
     <g transform="translate(234.210781 316.706687)scale(0.1 -0.1)">
      <use xlink:href="#DejaVuSans-70"/>
      <use x="57.519531" xlink:href="#DejaVuSans-49"/>
     </g>
    </g>
   </g>
   <g id="matplotlib.axis_2">
    <g id="ytick_1">
     <g id="line2d_13">
      <path clip-path="url(#paf5b64d419)" d="M 61.707813 263.375864 
L 418.827813 263.375864 
" style="fill:none;stroke:#b0b0b0;stroke-linecap:square;stroke-width:0.8;"/>
     </g>
     <g id="line2d_14">
      <defs>
       <path d="M 0 0 
L -3.5 0 
" id="m351899ac17" style="stroke:#000000;stroke-width:0.8;"/>
      </defs>
      <g>
       <use style="stroke:#000000;stroke-width:0.8;" x="61.707813" xlink:href="#m351899ac17" y="263.375864"/>
      </g>
     </g>
     <g id="text_8">
      <!-- −2700 -->
      <defs>
       <path d="M 10.59375 35.5 
L 73.1875 35.5 
L 73.1875 27.203125 
L 10.59375 27.203125 
z
" id="DejaVuSans-8722"/>
      </defs>
      <g transform="translate(20.878125 267.175083)scale(0.1 -0.1)">
       <use xlink:href="#DejaVuSans-8722"/>
       <use x="83.789062" xlink:href="#DejaVuSans-50"/>
       <use x="147.412109" xlink:href="#DejaVuSans-55"/>
       <use x="211.035156" xlink:href="#DejaVuSans-48"/>
       <use x="274.658203" xlink:href="#DejaVuSans-48"/>
      </g>
     </g>
    </g>
    <g id="ytick_2">
     <g id="line2d_15">
      <path clip-path="url(#paf5b64d419)" d="M 61.707813 216.575832 
L 418.827813 216.575832 
" style="fill:none;stroke:#b0b0b0;stroke-linecap:square;stroke-width:0.8;"/>
     </g>
     <g id="line2d_16">
      <g>
       <use style="stroke:#000000;stroke-width:0.8;" x="61.707813" xlink:href="#m351899ac17" y="216.575832"/>
      </g>
     </g>
     <g id="text_9">
      <!-- −2650 -->
      <defs>
       <path d="M 10.796875 72.90625 
L 49.515625 72.90625 
L 49.515625 64.59375 
L 19.828125 64.59375 
L 19.828125 46.734375 
Q 21.96875 47.46875 24.109375 47.828125 
Q 26.265625 48.1875 28.421875 48.1875 
Q 40.625 48.1875 47.75 41.5 
Q 54.890625 34.8125 54.890625 23.390625 
Q 54.890625 11.625 47.5625 5.09375 
Q 40.234375 -1.421875 26.90625 -1.421875 
Q 22.3125 -1.421875 17.546875 -0.640625 
Q 12.796875 0.140625 7.71875 1.703125 
L 7.71875 11.625 
Q 12.109375 9.234375 16.796875 8.0625 
Q 21.484375 6.890625 26.703125 6.890625 
Q 35.15625 6.890625 40.078125 11.328125 
Q 45.015625 15.765625 45.015625 23.390625 
Q 45.015625 31 40.078125 35.4375 
Q 35.15625 39.890625 26.703125 39.890625 
Q 22.75 39.890625 18.8125 39.015625 
Q 14.890625 38.140625 10.796875 36.28125 
z
" id="DejaVuSans-53"/>
      </defs>
      <g transform="translate(20.878125 220.375051)scale(0.1 -0.1)">
       <use xlink:href="#DejaVuSans-8722"/>
       <use x="83.789062" xlink:href="#DejaVuSans-50"/>
       <use x="147.412109" xlink:href="#DejaVuSans-54"/>
       <use x="211.035156" xlink:href="#DejaVuSans-53"/>
       <use x="274.658203" xlink:href="#DejaVuSans-48"/>
      </g>
     </g>
    </g>
    <g id="ytick_3">
     <g id="line2d_17">
      <path clip-path="url(#paf5b64d419)" d="M 61.707813 169.7758 
L 418.827813 169.7758 
" style="fill:none;stroke:#b0b0b0;stroke-linecap:square;stroke-width:0.8;"/>
     </g>
     <g id="line2d_18">
      <g>
       <use style="stroke:#000000;stroke-width:0.8;" x="61.707813" xlink:href="#m351899ac17" y="169.7758"/>
      </g>
     </g>
     <g id="text_10">
      <!-- −2600 -->
      <g transform="translate(20.878125 173.575019)scale(0.1 -0.1)">
       <use xlink:href="#DejaVuSans-8722"/>
       <use x="83.789062" xlink:href="#DejaVuSans-50"/>
       <use x="147.412109" xlink:href="#DejaVuSans-54"/>
       <use x="211.035156" xlink:href="#DejaVuSans-48"/>
       <use x="274.658203" xlink:href="#DejaVuSans-48"/>
      </g>
     </g>
    </g>
    <g id="ytick_4">
     <g id="line2d_19">
      <path clip-path="url(#paf5b64d419)" d="M 61.707813 122.975768 
L 418.827813 122.975768 
" style="fill:none;stroke:#b0b0b0;stroke-linecap:square;stroke-width:0.8;"/>
     </g>
     <g id="line2d_20">
      <g>
       <use style="stroke:#000000;stroke-width:0.8;" x="61.707813" xlink:href="#m351899ac17" y="122.975768"/>
      </g>
     </g>
     <g id="text_11">
      <!-- −2550 -->
      <g transform="translate(20.878125 126.774987)scale(0.1 -0.1)">
       <use xlink:href="#DejaVuSans-8722"/>
       <use x="83.789062" xlink:href="#DejaVuSans-50"/>
       <use x="147.412109" xlink:href="#DejaVuSans-53"/>
       <use x="211.035156" xlink:href="#DejaVuSans-53"/>
       <use x="274.658203" xlink:href="#DejaVuSans-48"/>
      </g>
     </g>
    </g>
    <g id="ytick_5">
     <g id="line2d_21">
      <path clip-path="url(#paf5b64d419)" d="M 61.707813 76.175736 
L 418.827813 76.175736 
" style="fill:none;stroke:#b0b0b0;stroke-linecap:square;stroke-width:0.8;"/>
     </g>
     <g id="line2d_22">
      <g>
       <use style="stroke:#000000;stroke-width:0.8;" x="61.707813" xlink:href="#m351899ac17" y="76.175736"/>
      </g>
     </g>
     <g id="text_12">
      <!-- −2500 -->
      <g transform="translate(20.878125 79.974954)scale(0.1 -0.1)">
       <use xlink:href="#DejaVuSans-8722"/>
       <use x="83.789062" xlink:href="#DejaVuSans-50"/>
       <use x="147.412109" xlink:href="#DejaVuSans-53"/>
       <use x="211.035156" xlink:href="#DejaVuSans-48"/>
       <use x="274.658203" xlink:href="#DejaVuSans-48"/>
      </g>
     </g>
    </g>
    <g id="ytick_6">
     <g id="line2d_23">
      <path clip-path="url(#paf5b64d419)" d="M 61.707813 29.375703 
L 418.827813 29.375703 
" style="fill:none;stroke:#b0b0b0;stroke-linecap:square;stroke-width:0.8;"/>
     </g>
     <g id="line2d_24">
      <g>
       <use style="stroke:#000000;stroke-width:0.8;" x="61.707813" xlink:href="#m351899ac17" y="29.375703"/>
      </g>
     </g>
     <g id="text_13">
      <!-- −2450 -->
      <g transform="translate(20.878125 33.174922)scale(0.1 -0.1)">
       <use xlink:href="#DejaVuSans-8722"/>
       <use x="83.789062" xlink:href="#DejaVuSans-50"/>
       <use x="147.412109" xlink:href="#DejaVuSans-52"/>
       <use x="211.035156" xlink:href="#DejaVuSans-53"/>
       <use x="274.658203" xlink:href="#DejaVuSans-48"/>
      </g>
     </g>
    </g>
    <g id="text_14">
     <!-- F2 -->
     <g transform="translate(14.798438 161.431156)rotate(-90)scale(0.1 -0.1)">
      <use xlink:href="#DejaVuSans-70"/>
      <use x="57.519531" xlink:href="#DejaVuSans-50"/>
     </g>
    </g>
   </g>
   <g id="line2d_25">
    <defs>
     <path d="M 0 2.5 
C 0.663008 2.5 1.29895 2.236584 1.767767 1.767767 
C 2.236584 1.29895 2.5 0.663008 2.5 0 
C 2.5 -0.663008 2.236584 -1.29895 1.767767 -1.767767 
C 1.29895 -2.236584 0.663008 -2.5 0 -2.5 
C -0.663008 -2.5 -1.29895 -2.236584 -1.767767 -1.767767 
C -2.236584 -1.29895 -2.5 -0.663008 -2.5 0 
C -2.5 0.663008 -2.236584 1.29895 -1.767767 1.767767 
C -1.29895 2.236584 -0.663008 2.5 0 2.5 
z
" id="m4b0f1cc66a" style="stroke:#ff0000;"/>
    </defs>
    <g clip-path="url(#paf5b64d419)">
     <use style="fill:#ff0000;stroke:#ff0000;" x="402.595085" xlink:href="#m4b0f1cc66a" y="155.374125"/>
     <use style="fill:#ff0000;stroke:#ff0000;" x="402.595085" xlink:href="#m4b0f1cc66a" y="155.374125"/>
     <use style="fill:#ff0000;stroke:#ff0000;" x="402.595085" xlink:href="#m4b0f1cc66a" y="155.374125"/>
     <use style="fill:#ff0000;stroke:#ff0000;" x="402.595085" xlink:href="#m4b0f1cc66a" y="155.374125"/>
     <use style="fill:#ff0000;stroke:#ff0000;" x="402.595085" xlink:href="#m4b0f1cc66a" y="155.374125"/>
     <use style="fill:#ff0000;stroke:#ff0000;" x="402.595085" xlink:href="#m4b0f1cc66a" y="155.374125"/>
     <use style="fill:#ff0000;stroke:#ff0000;" x="402.595085" xlink:href="#m4b0f1cc66a" y="155.374125"/>
     <use style="fill:#ff0000;stroke:#ff0000;" x="402.595085" xlink:href="#m4b0f1cc66a" y="155.374125"/>
     <use style="fill:#ff0000;stroke:#ff0000;" x="402.595085" xlink:href="#m4b0f1cc66a" y="155.374125"/>
     <use style="fill:#ff0000;stroke:#ff0000;" x="402.595085" xlink:href="#m4b0f1cc66a" y="155.374125"/>
     <use style="fill:#ff0000;stroke:#ff0000;" x="402.595085" xlink:href="#m4b0f1cc66a" y="155.374125"/>
     <use style="fill:#ff0000;stroke:#ff0000;" x="402.595085" xlink:href="#m4b0f1cc66a" y="155.374125"/>
     <use style="fill:#ff0000;stroke:#ff0000;" x="402.595085" xlink:href="#m4b0f1cc66a" y="155.374125"/>
     <use style="fill:#ff0000;stroke:#ff0000;" x="77.94054" xlink:href="#m4b0f1cc66a" y="155.374125"/>
     <use style="fill:#ff0000;stroke:#ff0000;" x="402.595085" xlink:href="#m4b0f1cc66a" y="155.374125"/>
     <use style="fill:#ff0000;stroke:#ff0000;" x="402.595085" xlink:href="#m4b0f1cc66a" y="155.374125"/>
     <use style="fill:#ff0000;stroke:#ff0000;" x="402.595085" xlink:href="#m4b0f1cc66a" y="155.374125"/>
     <use style="fill:#ff0000;stroke:#ff0000;" x="402.595085" xlink:href="#m4b0f1cc66a" y="155.374125"/>
     <use style="fill:#ff0000;stroke:#ff0000;" x="402.595085" xlink:href="#m4b0f1cc66a" y="155.374125"/>
     <use style="fill:#ff0000;stroke:#ff0000;" x="402.595085" xlink:href="#m4b0f1cc66a" y="155.374125"/>
     <use style="fill:#ff0000;stroke:#ff0000;" x="402.595085" xlink:href="#m4b0f1cc66a" y="155.374125"/>
     <use style="fill:#ff0000;stroke:#ff0000;" x="402.595085" xlink:href="#m4b0f1cc66a" y="155.374125"/>
     <use style="fill:#ff0000;stroke:#ff0000;" x="402.595085" xlink:href="#m4b0f1cc66a" y="155.374125"/>
     <use style="fill:#ff0000;stroke:#ff0000;" x="77.94054" xlink:href="#m4b0f1cc66a" y="155.374125"/>
     <use style="fill:#ff0000;stroke:#ff0000;" x="402.595085" xlink:href="#m4b0f1cc66a" y="155.374125"/>
     <use style="fill:#ff0000;stroke:#ff0000;" x="402.595085" xlink:href="#m4b0f1cc66a" y="155.374125"/>
     <use style="fill:#ff0000;stroke:#ff0000;" x="402.595085" xlink:href="#m4b0f1cc66a" y="155.374125"/>
     <use style="fill:#ff0000;stroke:#ff0000;" x="402.595085" xlink:href="#m4b0f1cc66a" y="155.374125"/>
     <use style="fill:#ff0000;stroke:#ff0000;" x="402.595085" xlink:href="#m4b0f1cc66a" y="155.374125"/>
     <use style="fill:#ff0000;stroke:#ff0000;" x="402.595085" xlink:href="#m4b0f1cc66a" y="155.374125"/>
     <use style="fill:#ff0000;stroke:#ff0000;" x="402.595085" xlink:href="#m4b0f1cc66a" y="155.374125"/>
     <use style="fill:#ff0000;stroke:#ff0000;" x="402.595085" xlink:href="#m4b0f1cc66a" y="155.374125"/>
     <use style="fill:#ff0000;stroke:#ff0000;" x="402.595085" xlink:href="#m4b0f1cc66a" y="155.374125"/>
     <use style="fill:#ff0000;stroke:#ff0000;" x="402.595085" xlink:href="#m4b0f1cc66a" y="155.374125"/>
     <use style="fill:#ff0000;stroke:#ff0000;" x="133.991699" xlink:href="#m4b0f1cc66a" y="155.374125"/>
     <use style="fill:#ff0000;stroke:#ff0000;" x="402.595085" xlink:href="#m4b0f1cc66a" y="155.374125"/>
     <use style="fill:#ff0000;stroke:#ff0000;" x="402.595085" xlink:href="#m4b0f1cc66a" y="155.374125"/>
     <use style="fill:#ff0000;stroke:#ff0000;" x="402.595085" xlink:href="#m4b0f1cc66a" y="155.374125"/>
     <use style="fill:#ff0000;stroke:#ff0000;" x="402.595085" xlink:href="#m4b0f1cc66a" y="155.374125"/>
     <use style="fill:#ff0000;stroke:#ff0000;" x="402.595085" xlink:href="#m4b0f1cc66a" y="155.374125"/>
     <use style="fill:#ff0000;stroke:#ff0000;" x="77.94054" xlink:href="#m4b0f1cc66a" y="155.374125"/>
     <use style="fill:#ff0000;stroke:#ff0000;" x="402.595085" xlink:href="#m4b0f1cc66a" y="155.374125"/>
     <use style="fill:#ff0000;stroke:#ff0000;" x="402.595085" xlink:href="#m4b0f1cc66a" y="155.374125"/>
     <use style="fill:#ff0000;stroke:#ff0000;" x="402.595085" xlink:href="#m4b0f1cc66a" y="155.374125"/>
     <use style="fill:#ff0000;stroke:#ff0000;" x="402.595085" xlink:href="#m4b0f1cc66a" y="155.374125"/>
     <use style="fill:#ff0000;stroke:#ff0000;" x="402.595085" xlink:href="#m4b0f1cc66a" y="155.374125"/>
     <use style="fill:#ff0000;stroke:#ff0000;" x="402.595085" xlink:href="#m4b0f1cc66a" y="155.374125"/>
     <use style="fill:#ff0000;stroke:#ff0000;" x="402.595085" xlink:href="#m4b0f1cc66a" y="155.374125"/>
     <use style="fill:#ff0000;stroke:#ff0000;" x="77.94054" xlink:href="#m4b0f1cc66a" y="155.374125"/>
     <use style="fill:#ff0000;stroke:#ff0000;" x="402.595085" xlink:href="#m4b0f1cc66a" y="155.374125"/>
     <use style="fill:#ff0000;stroke:#ff0000;" x="402.595085" xlink:href="#m4b0f1cc66a" y="155.374125"/>
     <use style="fill:#ff0000;stroke:#ff0000;" x="402.595085" xlink:href="#m4b0f1cc66a" y="155.374125"/>
     <use style="fill:#ff0000;stroke:#ff0000;" x="402.595085" xlink:href="#m4b0f1cc66a" y="155.374125"/>
     <use style="fill:#ff0000;stroke:#ff0000;" x="402.595085" xlink:href="#m4b0f1cc66a" y="155.374125"/>
     <use style="fill:#ff0000;stroke:#ff0000;" x="402.595085" xlink:href="#m4b0f1cc66a" y="155.374125"/>
     <use style="fill:#ff0000;stroke:#ff0000;" x="402.595085" xlink:href="#m4b0f1cc66a" y="155.374125"/>
     <use style="fill:#ff0000;stroke:#ff0000;" x="402.595085" xlink:href="#m4b0f1cc66a" y="155.374125"/>
     <use style="fill:#ff0000;stroke:#ff0000;" x="402.595085" xlink:href="#m4b0f1cc66a" y="155.374125"/>
     <use style="fill:#ff0000;stroke:#ff0000;" x="402.595085" xlink:href="#m4b0f1cc66a" y="155.374125"/>
     <use style="fill:#ff0000;stroke:#ff0000;" x="402.595085" xlink:href="#m4b0f1cc66a" y="155.374125"/>
     <use style="fill:#ff0000;stroke:#ff0000;" x="402.595085" xlink:href="#m4b0f1cc66a" y="155.374125"/>
     <use style="fill:#ff0000;stroke:#ff0000;" x="402.595085" xlink:href="#m4b0f1cc66a" y="155.374125"/>
     <use style="fill:#ff0000;stroke:#ff0000;" x="402.595085" xlink:href="#m4b0f1cc66a" y="155.374125"/>
     <use style="fill:#ff0000;stroke:#ff0000;" x="402.595085" xlink:href="#m4b0f1cc66a" y="155.374125"/>
     <use style="fill:#ff0000;stroke:#ff0000;" x="402.595085" xlink:href="#m4b0f1cc66a" y="155.374125"/>
     <use style="fill:#ff0000;stroke:#ff0000;" x="402.595085" xlink:href="#m4b0f1cc66a" y="155.374125"/>
     <use style="fill:#ff0000;stroke:#ff0000;" x="402.595085" xlink:href="#m4b0f1cc66a" y="155.374125"/>
     <use style="fill:#ff0000;stroke:#ff0000;" x="402.595085" xlink:href="#m4b0f1cc66a" y="155.374125"/>
     <use style="fill:#ff0000;stroke:#ff0000;" x="402.595085" xlink:href="#m4b0f1cc66a" y="155.374125"/>
     <use style="fill:#ff0000;stroke:#ff0000;" x="133.991699" xlink:href="#m4b0f1cc66a" y="155.374125"/>
     <use style="fill:#ff0000;stroke:#ff0000;" x="402.595085" xlink:href="#m4b0f1cc66a" y="155.374125"/>
     <use style="fill:#ff0000;stroke:#ff0000;" x="402.595085" xlink:href="#m4b0f1cc66a" y="155.374125"/>
     <use style="fill:#ff0000;stroke:#ff0000;" x="402.595085" xlink:href="#m4b0f1cc66a" y="155.374125"/>
     <use style="fill:#ff0000;stroke:#ff0000;" x="402.595085" xlink:href="#m4b0f1cc66a" y="155.374125"/>
     <use style="fill:#ff0000;stroke:#ff0000;" x="402.595085" xlink:href="#m4b0f1cc66a" y="155.374125"/>
     <use style="fill:#ff0000;stroke:#ff0000;" x="402.595085" xlink:href="#m4b0f1cc66a" y="155.374125"/>
     <use style="fill:#ff0000;stroke:#ff0000;" x="402.595085" xlink:href="#m4b0f1cc66a" y="155.374125"/>
     <use style="fill:#ff0000;stroke:#ff0000;" x="402.595085" xlink:href="#m4b0f1cc66a" y="155.374125"/>
     <use style="fill:#ff0000;stroke:#ff0000;" x="402.595085" xlink:href="#m4b0f1cc66a" y="155.374125"/>
     <use style="fill:#ff0000;stroke:#ff0000;" x="402.595085" xlink:href="#m4b0f1cc66a" y="155.374125"/>
     <use style="fill:#ff0000;stroke:#ff0000;" x="402.595085" xlink:href="#m4b0f1cc66a" y="155.374125"/>
     <use style="fill:#ff0000;stroke:#ff0000;" x="402.595085" xlink:href="#m4b0f1cc66a" y="155.374125"/>
     <use style="fill:#ff0000;stroke:#ff0000;" x="402.595085" xlink:href="#m4b0f1cc66a" y="155.374125"/>
     <use style="fill:#ff0000;stroke:#ff0000;" x="402.595085" xlink:href="#m4b0f1cc66a" y="155.374125"/>
     <use style="fill:#ff0000;stroke:#ff0000;" x="402.595085" xlink:href="#m4b0f1cc66a" y="155.374125"/>
     <use style="fill:#ff0000;stroke:#ff0000;" x="402.595085" xlink:href="#m4b0f1cc66a" y="155.374125"/>
     <use style="fill:#ff0000;stroke:#ff0000;" x="402.595085" xlink:href="#m4b0f1cc66a" y="155.374125"/>
     <use style="fill:#ff0000;stroke:#ff0000;" x="402.595085" xlink:href="#m4b0f1cc66a" y="155.374125"/>
     <use style="fill:#ff0000;stroke:#ff0000;" x="402.595085" xlink:href="#m4b0f1cc66a" y="155.374125"/>
     <use style="fill:#ff0000;stroke:#ff0000;" x="402.595085" xlink:href="#m4b0f1cc66a" y="155.374125"/>
     <use style="fill:#ff0000;stroke:#ff0000;" x="402.595085" xlink:href="#m4b0f1cc66a" y="155.374125"/>
     <use style="fill:#ff0000;stroke:#ff0000;" x="402.595085" xlink:href="#m4b0f1cc66a" y="155.374125"/>
     <use style="fill:#ff0000;stroke:#ff0000;" x="402.595085" xlink:href="#m4b0f1cc66a" y="155.374125"/>
     <use style="fill:#ff0000;stroke:#ff0000;" x="402.595085" xlink:href="#m4b0f1cc66a" y="155.374125"/>
     <use style="fill:#ff0000;stroke:#ff0000;" x="402.595085" xlink:href="#m4b0f1cc66a" y="155.374125"/>
     <use style="fill:#ff0000;stroke:#ff0000;" x="402.595085" xlink:href="#m4b0f1cc66a" y="155.374125"/>
     <use style="fill:#ff0000;stroke:#ff0000;" x="402.595085" xlink:href="#m4b0f1cc66a" y="155.374125"/>
     <use style="fill:#ff0000;stroke:#ff0000;" x="402.595085" xlink:href="#m4b0f1cc66a" y="155.374125"/>
     <use style="fill:#ff0000;stroke:#ff0000;" x="402.595085" xlink:href="#m4b0f1cc66a" y="155.374125"/>
     <use style="fill:#ff0000;stroke:#ff0000;" x="402.595085" xlink:href="#m4b0f1cc66a" y="155.374125"/>
    </g>
   </g>
   <g id="patch_3">
    <path d="M 61.707813 288.430125 
L 61.707813 22.318125 
" style="fill:none;stroke:#000000;stroke-linecap:square;stroke-linejoin:miter;stroke-width:0.8;"/>
   </g>
   <g id="patch_4">
    <path d="M 418.827813 288.430125 
L 418.827813 22.318125 
" style="fill:none;stroke:#000000;stroke-linecap:square;stroke-linejoin:miter;stroke-width:0.8;"/>
   </g>
   <g id="patch_5">
    <path d="M 61.707812 288.430125 
L 418.827812 288.430125 
" style="fill:none;stroke:#000000;stroke-linecap:square;stroke-linejoin:miter;stroke-width:0.8;"/>
   </g>
   <g id="patch_6">
    <path d="M 61.707812 22.318125 
L 418.827812 22.318125 
" style="fill:none;stroke:#000000;stroke-linecap:square;stroke-linejoin:miter;stroke-width:0.8;"/>
   </g>
   <g id="text_15">
    <!-- Pareto Front Plot -->
    <defs>
     <path d="M 19.671875 64.796875 
L 19.671875 37.40625 
L 32.078125 37.40625 
Q 38.96875 37.40625 42.71875 40.96875 
Q 46.484375 44.53125 46.484375 51.125 
Q 46.484375 57.671875 42.71875 61.234375 
Q 38.96875 64.796875 32.078125 64.796875 
z
M 9.8125 72.90625 
L 32.078125 72.90625 
Q 44.34375 72.90625 50.609375 67.359375 
Q 56.890625 61.8125 56.890625 51.125 
Q 56.890625 40.328125 50.609375 34.8125 
Q 44.34375 29.296875 32.078125 29.296875 
L 19.671875 29.296875 
L 19.671875 0 
L 9.8125 0 
z
" id="DejaVuSans-80"/>
     <path d="M 34.28125 27.484375 
Q 23.390625 27.484375 19.1875 25 
Q 14.984375 22.515625 14.984375 16.5 
Q 14.984375 11.71875 18.140625 8.90625 
Q 21.296875 6.109375 26.703125 6.109375 
Q 34.1875 6.109375 38.703125 11.40625 
Q 43.21875 16.703125 43.21875 25.484375 
L 43.21875 27.484375 
z
M 52.203125 31.203125 
L 52.203125 0 
L 43.21875 0 
L 43.21875 8.296875 
Q 40.140625 3.328125 35.546875 0.953125 
Q 30.953125 -1.421875 24.3125 -1.421875 
Q 15.921875 -1.421875 10.953125 3.296875 
Q 6 8.015625 6 15.921875 
Q 6 25.140625 12.171875 29.828125 
Q 18.359375 34.515625 30.609375 34.515625 
L 43.21875 34.515625 
L 43.21875 35.40625 
Q 43.21875 41.609375 39.140625 45 
Q 35.0625 48.390625 27.6875 48.390625 
Q 23 48.390625 18.546875 47.265625 
Q 14.109375 46.140625 10.015625 43.890625 
L 10.015625 52.203125 
Q 14.9375 54.109375 19.578125 55.046875 
Q 24.21875 56 28.609375 56 
Q 40.484375 56 46.34375 49.84375 
Q 52.203125 43.703125 52.203125 31.203125 
z
" id="DejaVuSans-97"/>
     <path d="M 41.109375 46.296875 
Q 39.59375 47.171875 37.8125 47.578125 
Q 36.03125 48 33.890625 48 
Q 26.265625 48 22.1875 43.046875 
Q 18.109375 38.09375 18.109375 28.8125 
L 18.109375 0 
L 9.078125 0 
L 9.078125 54.6875 
L 18.109375 54.6875 
L 18.109375 46.1875 
Q 20.953125 51.171875 25.484375 53.578125 
Q 30.03125 56 36.53125 56 
Q 37.453125 56 38.578125 55.875 
Q 39.703125 55.765625 41.0625 55.515625 
z
" id="DejaVuSans-114"/>
     <path d="M 56.203125 29.59375 
L 56.203125 25.203125 
L 14.890625 25.203125 
Q 15.484375 15.921875 20.484375 11.0625 
Q 25.484375 6.203125 34.421875 6.203125 
Q 39.59375 6.203125 44.453125 7.46875 
Q 49.3125 8.734375 54.109375 11.28125 
L 54.109375 2.78125 
Q 49.265625 0.734375 44.1875 -0.34375 
Q 39.109375 -1.421875 33.890625 -1.421875 
Q 20.796875 -1.421875 13.15625 6.1875 
Q 5.515625 13.8125 5.515625 26.8125 
Q 5.515625 40.234375 12.765625 48.109375 
Q 20.015625 56 32.328125 56 
Q 43.359375 56 49.78125 48.890625 
Q 56.203125 41.796875 56.203125 29.59375 
z
M 47.21875 32.234375 
Q 47.125 39.59375 43.09375 43.984375 
Q 39.0625 48.390625 32.421875 48.390625 
Q 24.90625 48.390625 20.390625 44.140625 
Q 15.875 39.890625 15.1875 32.171875 
z
" id="DejaVuSans-101"/>
     <path d="M 18.3125 70.21875 
L 18.3125 54.6875 
L 36.8125 54.6875 
L 36.8125 47.703125 
L 18.3125 47.703125 
L 18.3125 18.015625 
Q 18.3125 11.328125 20.140625 9.421875 
Q 21.96875 7.515625 27.59375 7.515625 
L 36.8125 7.515625 
L 36.8125 0 
L 27.59375 0 
Q 17.1875 0 13.234375 3.875 
Q 9.28125 7.765625 9.28125 18.015625 
L 9.28125 47.703125 
L 2.6875 47.703125 
L 2.6875 54.6875 
L 9.28125 54.6875 
L 9.28125 70.21875 
z
" id="DejaVuSans-116"/>
     <path d="M 30.609375 48.390625 
Q 23.390625 48.390625 19.1875 42.75 
Q 14.984375 37.109375 14.984375 27.296875 
Q 14.984375 17.484375 19.15625 11.84375 
Q 23.34375 6.203125 30.609375 6.203125 
Q 37.796875 6.203125 41.984375 11.859375 
Q 46.1875 17.53125 46.1875 27.296875 
Q 46.1875 37.015625 41.984375 42.703125 
Q 37.796875 48.390625 30.609375 48.390625 
z
M 30.609375 56 
Q 42.328125 56 49.015625 48.375 
Q 55.71875 40.765625 55.71875 27.296875 
Q 55.71875 13.875 49.015625 6.21875 
Q 42.328125 -1.421875 30.609375 -1.421875 
Q 18.84375 -1.421875 12.171875 6.21875 
Q 5.515625 13.875 5.515625 27.296875 
Q 5.515625 40.765625 12.171875 48.375 
Q 18.84375 56 30.609375 56 
z
" id="DejaVuSans-111"/>
     <path id="DejaVuSans-32"/>
     <path d="M 54.890625 33.015625 
L 54.890625 0 
L 45.90625 0 
L 45.90625 32.71875 
Q 45.90625 40.484375 42.875 44.328125 
Q 39.84375 48.1875 33.796875 48.1875 
Q 26.515625 48.1875 22.3125 43.546875 
Q 18.109375 38.921875 18.109375 30.90625 
L 18.109375 0 
L 9.078125 0 
L 9.078125 54.6875 
L 18.109375 54.6875 
L 18.109375 46.1875 
Q 21.34375 51.125 25.703125 53.5625 
Q 30.078125 56 35.796875 56 
Q 45.21875 56 50.046875 50.171875 
Q 54.890625 44.34375 54.890625 33.015625 
z
" id="DejaVuSans-110"/>
     <path d="M 9.421875 75.984375 
L 18.40625 75.984375 
L 18.40625 0 
L 9.421875 0 
z
" id="DejaVuSans-108"/>
    </defs>
    <g transform="translate(190.900938 16.318125)scale(0.12 -0.12)">
     <use xlink:href="#DejaVuSans-80"/>
     <use x="55.802734" xlink:href="#DejaVuSans-97"/>
     <use x="117.082031" xlink:href="#DejaVuSans-114"/>
     <use x="155.945312" xlink:href="#DejaVuSans-101"/>
     <use x="217.46875" xlink:href="#DejaVuSans-116"/>
     <use x="256.677734" xlink:href="#DejaVuSans-111"/>
     <use x="317.859375" xlink:href="#DejaVuSans-32"/>
     <use x="349.646484" xlink:href="#DejaVuSans-70"/>
     <use x="399.916016" xlink:href="#DejaVuSans-114"/>
     <use x="438.779297" xlink:href="#DejaVuSans-111"/>
     <use x="499.960938" xlink:href="#DejaVuSans-110"/>
     <use x="563.339844" xlink:href="#DejaVuSans-116"/>
     <use x="602.548828" xlink:href="#DejaVuSans-32"/>
     <use x="634.335938" xlink:href="#DejaVuSans-80"/>
     <use x="694.638672" xlink:href="#DejaVuSans-108"/>
     <use x="722.421875" xlink:href="#DejaVuSans-111"/>
     <use x="783.603516" xlink:href="#DejaVuSans-116"/>
    </g>
   </g>
   <g id="legend_1">
    <g id="patch_7">
     <path d="M 335.209063 44.99625 
L 411.827813 44.99625 
Q 413.827813 44.99625 413.827813 42.99625 
L 413.827813 29.318125 
Q 413.827813 27.318125 411.827813 27.318125 
L 335.209063 27.318125 
Q 333.209063 27.318125 333.209063 29.318125 
L 333.209063 42.99625 
Q 333.209063 44.99625 335.209063 44.99625 
z
" style="fill:#ffffff;opacity:0.8;stroke:#cccccc;stroke-linejoin:miter;"/>
    </g>
    <g id="line2d_26"/>
    <g id="line2d_27">
     <g>
      <use style="fill:#ff0000;stroke:#ff0000;" x="347.209063" xlink:href="#m4b0f1cc66a" y="35.416562"/>
     </g>
    </g>
    <g id="text_16">
     <!-- MOEA PF -->
     <defs>
      <path d="M 9.8125 72.90625 
L 24.515625 72.90625 
L 43.109375 23.296875 
L 61.8125 72.90625 
L 76.515625 72.90625 
L 76.515625 0 
L 66.890625 0 
L 66.890625 64.015625 
L 48.09375 14.015625 
L 38.1875 14.015625 
L 19.390625 64.015625 
L 19.390625 0 
L 9.8125 0 
z
" id="DejaVuSans-77"/>
      <path d="M 39.40625 66.21875 
Q 28.65625 66.21875 22.328125 58.203125 
Q 16.015625 50.203125 16.015625 36.375 
Q 16.015625 22.609375 22.328125 14.59375 
Q 28.65625 6.59375 39.40625 6.59375 
Q 50.140625 6.59375 56.421875 14.59375 
Q 62.703125 22.609375 62.703125 36.375 
Q 62.703125 50.203125 56.421875 58.203125 
Q 50.140625 66.21875 39.40625 66.21875 
z
M 39.40625 74.21875 
Q 54.734375 74.21875 63.90625 63.9375 
Q 73.09375 53.65625 73.09375 36.375 
Q 73.09375 19.140625 63.90625 8.859375 
Q 54.734375 -1.421875 39.40625 -1.421875 
Q 24.03125 -1.421875 14.8125 8.828125 
Q 5.609375 19.09375 5.609375 36.375 
Q 5.609375 53.65625 14.8125 63.9375 
Q 24.03125 74.21875 39.40625 74.21875 
z
" id="DejaVuSans-79"/>
      <path d="M 9.8125 72.90625 
L 55.90625 72.90625 
L 55.90625 64.59375 
L 19.671875 64.59375 
L 19.671875 43.015625 
L 54.390625 43.015625 
L 54.390625 34.71875 
L 19.671875 34.71875 
L 19.671875 8.296875 
L 56.78125 8.296875 
L 56.78125 0 
L 9.8125 0 
z
" id="DejaVuSans-69"/>
      <path d="M 34.1875 63.1875 
L 20.796875 26.90625 
L 47.609375 26.90625 
z
M 28.609375 72.90625 
L 39.796875 72.90625 
L 67.578125 0 
L 57.328125 0 
L 50.6875 18.703125 
L 17.828125 18.703125 
L 11.1875 0 
L 0.78125 0 
z
" id="DejaVuSans-65"/>
     </defs>
     <g transform="translate(365.209063 38.916562)scale(0.1 -0.1)">
      <use xlink:href="#DejaVuSans-77"/>
      <use x="86.279297" xlink:href="#DejaVuSans-79"/>
      <use x="164.990234" xlink:href="#DejaVuSans-69"/>
      <use x="228.173828" xlink:href="#DejaVuSans-65"/>
      <use x="296.582031" xlink:href="#DejaVuSans-32"/>
      <use x="328.369141" xlink:href="#DejaVuSans-80"/>
      <use x="388.671875" xlink:href="#DejaVuSans-70"/>
     </g>
    </g>
   </g>
  </g>
 </g>
 <defs>
  <clipPath id="paf5b64d419">
   <rect height="266.112" width="357.12" x="61.707813" y="22.318125"/>
  </clipPath>
 </defs>
</svg>
