<?xml version="1.0" encoding="utf-8" standalone="no"?>
<!DOCTYPE svg PUBLIC "-//W3C//DTD SVG 1.1//EN"
  "http://www.w3.org/Graphics/SVG/1.1/DTD/svg11.dtd">
<!-- Created with matplotlib (https://matplotlib.org/) -->
<svg height="360pt" version="1.1" viewBox="0 0 475.2 360" width="475.2pt" xmlns="http://www.w3.org/2000/svg" xmlns:xlink="http://www.w3.org/1999/xlink">
 <defs>
  <style type="text/css">
*{stroke-linecap:butt;stroke-linejoin:round;}
  </style>
 </defs>
 <g id="figure_1">
  <g id="patch_1">
   <path d="M 0 360 
L 475.2 360 
L 475.2 0 
L 0 0 
z
" style="fill:#ffffff;"/>
  </g>
  <g id="patch_2">
   <path d="M 7.2 352.8 
L 468 352.8 
L 468 7.2 
L 7.2 7.2 
z
" style="fill:#ffffff;"/>
  </g>
  <g id="pane3d_1">
   <g id="patch_3">
    <path d="M 243.827027 189.517581 
L 422.636084 257.453033 
L 432.198066 88.814806 
L 243.827027 27.835696 
" style="fill:#f2f2f2;opacity:0.5;stroke:#f2f2f2;stroke-linejoin:miter;"/>
   </g>
  </g>
  <g id="pane3d_2">
   <g id="patch_4">
    <path d="M 243.827027 189.517581 
L 65.01797 257.453033 
L 55.455988 88.814806 
L 243.827027 27.835696 
" style="fill:#e6e6e6;opacity:0.5;stroke:#e6e6e6;stroke-linejoin:miter;"/>
   </g>
  </g>
  <g id="pane3d_3">
   <g id="patch_5">
    <path d="M 243.827027 189.517581 
L 65.01797 257.453033 
L 243.827027 334.395516 
L 422.636084 257.453033 
" style="fill:#ececec;opacity:0.5;stroke:#ececec;stroke-linejoin:miter;"/>
   </g>
  </g>
  <g id="axis3d_1">
   <g id="line2d_1">
    <path d="M 422.636084 257.453033 
L 243.827027 334.395516 
" style="fill:none;stroke:#000000;stroke-linecap:square;stroke-width:0.8;"/>
   </g>
   <g id="text_1">
    <!-- F1 -->
    <defs>
     <path d="M 9.8125 72.90625 
L 51.703125 72.90625 
L 51.703125 64.59375 
L 19.671875 64.59375 
L 19.671875 43.109375 
L 48.578125 43.109375 
L 48.578125 34.8125 
L 19.671875 34.8125 
L 19.671875 0 
L 9.8125 0 
z
" id="DejaVuSans-70"/>
     <path d="M 12.40625 8.296875 
L 28.515625 8.296875 
L 28.515625 63.921875 
L 10.984375 60.40625 
L 10.984375 69.390625 
L 28.421875 72.90625 
L 38.28125 72.90625 
L 38.28125 8.296875 
L 54.390625 8.296875 
L 54.390625 0 
L 12.40625 0 
z
" id="DejaVuSans-49"/>
    </defs>
    <g transform="translate(352.172894 326.075964)scale(0.1 -0.1)">
     <use xlink:href="#DejaVuSans-70"/>
     <use x="57.519531" xlink:href="#DejaVuSans-49"/>
    </g>
   </g>
   <g id="Line3DCollection_1">
    <path d="M 410.791278 262.549916 
L 231.939317 194.034114 
L 231.340096 31.877941 
" style="fill:none;stroke:#b0b0b0;stroke-width:0.8;"/>
    <path d="M 377.592997 276.835312 
L 198.653322 206.68056 
L 196.34868 43.205295 
" style="fill:none;stroke:#b0b0b0;stroke-width:0.8;"/>
    <path d="M 343.570998 291.475158 
L 164.591105 219.621918 
L 160.49913 54.810442 
" style="fill:none;stroke:#b0b0b0;stroke-width:0.8;"/>
    <path d="M 308.694238 306.482812 
L 129.725193 232.868627 
L 123.759489 66.703728 
" style="fill:none;stroke:#b0b0b0;stroke-width:0.8;"/>
    <path d="M 272.930096 321.872312 
L 94.026802 246.431622 
L 86.096189 78.896019 
" style="fill:none;stroke:#b0b0b0;stroke-width:0.8;"/>
   </g>
   <g id="xtick_1">
    <g id="line2d_2">
     <path d="M 409.271877 261.967854 
L 413.834638 263.715787 
" style="fill:none;stroke:#000000;stroke-linecap:square;stroke-width:0.8;"/>
    </g>
    <g id="text_2">
     <!-- 540 -->
     <defs>
      <path d="M 10.796875 72.90625 
L 49.515625 72.90625 
L 49.515625 64.59375 
L 19.828125 64.59375 
L 19.828125 46.734375 
Q 21.96875 47.46875 24.109375 47.828125 
Q 26.265625 48.1875 28.421875 48.1875 
Q 40.625 48.1875 47.75 41.5 
Q 54.890625 34.8125 54.890625 23.390625 
Q 54.890625 11.625 47.5625 5.09375 
Q 40.234375 -1.421875 26.90625 -1.421875 
Q 22.3125 -1.421875 17.546875 -0.640625 
Q 12.796875 0.140625 7.71875 1.703125 
L 7.71875 11.625 
Q 12.109375 9.234375 16.796875 8.0625 
Q 21.484375 6.890625 26.703125 6.890625 
Q 35.15625 6.890625 40.078125 11.328125 
Q 45.015625 15.765625 45.015625 23.390625 
Q 45.015625 31 40.078125 35.4375 
Q 35.15625 39.890625 26.703125 39.890625 
Q 22.75 39.890625 18.8125 39.015625 
Q 14.890625 38.140625 10.796875 36.28125 
z
" id="DejaVuSans-53"/>
      <path d="M 37.796875 64.3125 
L 12.890625 25.390625 
L 37.796875 25.390625 
z
M 35.203125 72.90625 
L 47.609375 72.90625 
L 47.609375 25.390625 
L 58.015625 25.390625 
L 58.015625 17.1875 
L 47.609375 17.1875 
L 47.609375 0 
L 37.796875 0 
L 37.796875 17.1875 
L 4.890625 17.1875 
L 4.890625 26.703125 
z
" id="DejaVuSans-52"/>
      <path d="M 31.78125 66.40625 
Q 24.171875 66.40625 20.328125 58.90625 
Q 16.5 51.421875 16.5 36.375 
Q 16.5 21.390625 20.328125 13.890625 
Q 24.171875 6.390625 31.78125 6.390625 
Q 39.453125 6.390625 43.28125 13.890625 
Q 47.125 21.390625 47.125 36.375 
Q 47.125 51.421875 43.28125 58.90625 
Q 39.453125 66.40625 31.78125 66.40625 
z
M 31.78125 74.21875 
Q 44.046875 74.21875 50.515625 64.515625 
Q 56.984375 54.828125 56.984375 36.375 
Q 56.984375 17.96875 50.515625 8.265625 
Q 44.046875 -1.421875 31.78125 -1.421875 
Q 19.53125 -1.421875 13.0625 8.265625 
Q 6.59375 17.96875 6.59375 36.375 
Q 6.59375 54.828125 13.0625 64.515625 
Q 19.53125 74.21875 31.78125 74.21875 
z
" id="DejaVuSans-48"/>
     </defs>
     <g transform="translate(411.193461 282.933156)scale(0.1 -0.1)">
      <use xlink:href="#DejaVuSans-53"/>
      <use x="63.623047" xlink:href="#DejaVuSans-52"/>
      <use x="127.246094" xlink:href="#DejaVuSans-48"/>
     </g>
    </g>
   </g>
   <g id="xtick_2">
    <g id="line2d_3">
     <path d="M 376.071765 276.238901 
L 380.64008 278.029946 
" style="fill:none;stroke:#000000;stroke-linecap:square;stroke-width:0.8;"/>
    </g>
    <g id="text_3">
     <!-- 560 -->
     <defs>
      <path d="M 33.015625 40.375 
Q 26.375 40.375 22.484375 35.828125 
Q 18.609375 31.296875 18.609375 23.390625 
Q 18.609375 15.53125 22.484375 10.953125 
Q 26.375 6.390625 33.015625 6.390625 
Q 39.65625 6.390625 43.53125 10.953125 
Q 47.40625 15.53125 47.40625 23.390625 
Q 47.40625 31.296875 43.53125 35.828125 
Q 39.65625 40.375 33.015625 40.375 
z
M 52.59375 71.296875 
L 52.59375 62.3125 
Q 48.875 64.0625 45.09375 64.984375 
Q 41.3125 65.921875 37.59375 65.921875 
Q 27.828125 65.921875 22.671875 59.328125 
Q 17.53125 52.734375 16.796875 39.40625 
Q 19.671875 43.65625 24.015625 45.921875 
Q 28.375 48.1875 33.59375 48.1875 
Q 44.578125 48.1875 50.953125 41.515625 
Q 57.328125 34.859375 57.328125 23.390625 
Q 57.328125 12.15625 50.6875 5.359375 
Q 44.046875 -1.421875 33.015625 -1.421875 
Q 20.359375 -1.421875 13.671875 8.265625 
Q 6.984375 17.96875 6.984375 36.375 
Q 6.984375 53.65625 15.1875 63.9375 
Q 23.390625 74.21875 37.203125 74.21875 
Q 40.921875 74.21875 44.703125 73.484375 
Q 48.484375 72.75 52.59375 71.296875 
z
" id="DejaVuSans-54"/>
     </defs>
     <g transform="translate(378.096035 297.384397)scale(0.1 -0.1)">
      <use xlink:href="#DejaVuSans-53"/>
      <use x="63.623047" xlink:href="#DejaVuSans-54"/>
      <use x="127.246094" xlink:href="#DejaVuSans-48"/>
     </g>
    </g>
   </g>
   <g id="xtick_3">
    <g id="line2d_4">
     <path d="M 342.048312 290.863861 
L 346.621052 292.699632 
" style="fill:none;stroke:#000000;stroke-linecap:square;stroke-width:0.8;"/>
    </g>
    <g id="text_4">
     <!-- 580 -->
     <defs>
      <path d="M 31.78125 34.625 
Q 24.75 34.625 20.71875 30.859375 
Q 16.703125 27.09375 16.703125 20.515625 
Q 16.703125 13.921875 20.71875 10.15625 
Q 24.75 6.390625 31.78125 6.390625 
Q 38.8125 6.390625 42.859375 10.171875 
Q 46.921875 13.96875 46.921875 20.515625 
Q 46.921875 27.09375 42.890625 30.859375 
Q 38.875 34.625 31.78125 34.625 
z
M 21.921875 38.8125 
Q 15.578125 40.375 12.03125 44.71875 
Q 8.5 49.078125 8.5 55.328125 
Q 8.5 64.0625 14.71875 69.140625 
Q 20.953125 74.21875 31.78125 74.21875 
Q 42.671875 74.21875 48.875 69.140625 
Q 55.078125 64.0625 55.078125 55.328125 
Q 55.078125 49.078125 51.53125 44.71875 
Q 48 40.375 41.703125 38.8125 
Q 48.828125 37.15625 52.796875 32.3125 
Q 56.78125 27.484375 56.78125 20.515625 
Q 56.78125 9.90625 50.3125 4.234375 
Q 43.84375 -1.421875 31.78125 -1.421875 
Q 19.734375 -1.421875 13.25 4.234375 
Q 6.78125 9.90625 6.78125 20.515625 
Q 6.78125 27.484375 10.78125 32.3125 
Q 14.796875 37.15625 21.921875 38.8125 
z
M 18.3125 54.390625 
Q 18.3125 48.734375 21.84375 45.5625 
Q 25.390625 42.390625 31.78125 42.390625 
Q 38.140625 42.390625 41.71875 45.5625 
Q 45.3125 48.734375 45.3125 54.390625 
Q 45.3125 60.0625 41.71875 63.234375 
Q 38.140625 66.40625 31.78125 66.40625 
Q 25.390625 66.40625 21.84375 63.234375 
Q 18.3125 60.0625 18.3125 54.390625 
z
" id="DejaVuSans-56"/>
     </defs>
     <g transform="translate(344.176864 312.194433)scale(0.1 -0.1)">
      <use xlink:href="#DejaVuSans-53"/>
      <use x="63.623047" xlink:href="#DejaVuSans-56"/>
      <use x="127.246094" xlink:href="#DejaVuSans-48"/>
     </g>
    </g>
   </g>
   <g id="xtick_4">
    <g id="line2d_5">
     <path d="M 307.170504 305.856064 
L 311.746451 307.738259 
" style="fill:none;stroke:#000000;stroke-linecap:square;stroke-width:0.8;"/>
    </g>
    <g id="text_5">
     <!-- 600 -->
     <g transform="translate(309.404962 327.376795)scale(0.1 -0.1)">
      <use xlink:href="#DejaVuSans-54"/>
      <use x="63.623047" xlink:href="#DejaVuSans-48"/>
      <use x="127.246094" xlink:href="#DejaVuSans-48"/>
     </g>
    </g>
   </g>
   <g id="xtick_5">
    <g id="line2d_6">
     <path d="M 271.405752 321.22952 
L 275.98359 323.159922 
" style="fill:none;stroke:#000000;stroke-linecap:square;stroke-width:0.8;"/>
    </g>
    <g id="text_6">
     <!-- 620 -->
     <defs>
      <path d="M 19.1875 8.296875 
L 53.609375 8.296875 
L 53.609375 0 
L 7.328125 0 
L 7.328125 8.296875 
Q 12.9375 14.109375 22.625 23.890625 
Q 32.328125 33.6875 34.8125 36.53125 
Q 39.546875 41.84375 41.421875 45.53125 
Q 43.3125 49.21875 43.3125 52.78125 
Q 43.3125 58.59375 39.234375 62.25 
Q 35.15625 65.921875 28.609375 65.921875 
Q 23.96875 65.921875 18.8125 64.3125 
Q 13.671875 62.703125 7.8125 59.421875 
L 7.8125 69.390625 
Q 13.765625 71.78125 18.9375 73 
Q 24.125 74.21875 28.421875 74.21875 
Q 39.75 74.21875 46.484375 68.546875 
Q 53.21875 62.890625 53.21875 53.421875 
Q 53.21875 48.921875 51.53125 44.890625 
Q 49.859375 40.875 45.40625 35.40625 
Q 44.1875 33.984375 37.640625 27.21875 
Q 31.109375 20.453125 19.1875 8.296875 
z
" id="DejaVuSans-50"/>
     </defs>
     <g transform="translate(273.747761 342.945703)scale(0.1 -0.1)">
      <use xlink:href="#DejaVuSans-54"/>
      <use x="63.623047" xlink:href="#DejaVuSans-50"/>
      <use x="127.246094" xlink:href="#DejaVuSans-48"/>
     </g>
    </g>
   </g>
  </g>
  <g id="axis3d_2">
   <g id="line2d_7">
    <path d="M 65.01797 257.453033 
L 243.827027 334.395516 
" style="fill:none;stroke:#000000;stroke-linecap:square;stroke-width:0.8;"/>
   </g>
   <g id="text_7">
    <!-- F2 -->
    <g transform="translate(123.367097 326.075964)scale(0.1 -0.1)">
     <use xlink:href="#DejaVuSans-70"/>
     <use x="57.519531" xlink:href="#DejaVuSans-50"/>
    </g>
   </g>
   <g id="Line3DCollection_2">
    <path d="M 260.178579 33.128989 
L 259.392904 195.43157 
L 80.528902 264.127469 
" style="fill:none;stroke:#b0b0b0;stroke-width:0.8;"/>
    <path d="M 289.62208 42.660383 
L 287.400364 206.072527 
L 108.463813 276.148009 
" style="fill:none;stroke:#b0b0b0;stroke-width:0.8;"/>
    <path d="M 319.671174 52.387817 
L 315.95566 216.921625 
L 136.980016 288.418682 
" style="fill:none;stroke:#b0b0b0;stroke-width:0.8;"/>
    <path d="M 350.344738 62.317404 
L 345.075024 227.985031 
L 166.095848 300.947379 
" style="fill:none;stroke:#b0b0b0;stroke-width:0.8;"/>
    <path d="M 381.662442 72.455511 
L 374.775335 239.269158 
L 195.830422 313.742323 
" style="fill:none;stroke:#b0b0b0;stroke-width:0.8;"/>
    <path d="M 413.644792 82.808776 
L 405.074156 250.780678 
L 226.203673 326.812094 
" style="fill:none;stroke:#b0b0b0;stroke-width:0.8;"/>
   </g>
   <g id="xtick_6">
    <g id="line2d_8">
     <path d="M 82.048525 263.543831 
L 77.485091 265.296499 
" style="fill:none;stroke:#000000;stroke-linecap:square;stroke-width:0.8;"/>
    </g>
    <g id="text_8">
     <!-- 2574 -->
     <defs>
      <path d="M 8.203125 72.90625 
L 55.078125 72.90625 
L 55.078125 68.703125 
L 28.609375 0 
L 18.3125 0 
L 43.21875 64.59375 
L 8.203125 64.59375 
z
" id="DejaVuSans-55"/>
     </defs>
     <g transform="translate(57.846807 284.529013)scale(0.1 -0.1)">
      <use xlink:href="#DejaVuSans-50"/>
      <use x="63.623047" xlink:href="#DejaVuSans-53"/>
      <use x="127.246094" xlink:href="#DejaVuSans-55"/>
      <use x="190.869141" xlink:href="#DejaVuSans-52"/>
     </g>
    </g>
   </g>
   <g id="xtick_7">
    <g id="line2d_9">
     <path d="M 109.984965 275.552292 
L 105.41689 277.341251 
" style="fill:none;stroke:#000000;stroke-linecap:square;stroke-width:0.8;"/>
    </g>
    <g id="text_9">
     <!-- 2576 -->
     <g transform="translate(85.696866 296.689109)scale(0.1 -0.1)">
      <use xlink:href="#DejaVuSans-50"/>
      <use x="63.623047" xlink:href="#DejaVuSans-53"/>
      <use x="127.246094" xlink:href="#DejaVuSans-55"/>
      <use x="190.869141" xlink:href="#DejaVuSans-54"/>
     </g>
    </g>
   </g>
   <g id="xtick_8">
    <g id="line2d_10">
     <path d="M 138.502434 287.810508 
L 133.930512 289.636896 
" style="fill:none;stroke:#000000;stroke-linecap:square;stroke-width:0.8;"/>
    </g>
    <g id="text_10">
     <!-- 2578 -->
     <g transform="translate(114.126824 309.102406)scale(0.1 -0.1)">
      <use xlink:href="#DejaVuSans-50"/>
      <use x="63.623047" xlink:href="#DejaVuSans-53"/>
      <use x="127.246094" xlink:href="#DejaVuSans-55"/>
      <use x="190.869141" xlink:href="#DejaVuSans-56"/>
     </g>
    </g>
   </g>
   <g id="xtick_9">
    <g id="line2d_11">
     <path d="M 167.619248 300.326352 
L 163.044327 302.191357 
" style="fill:none;stroke:#000000;stroke-linecap:square;stroke-width:0.8;"/>
    </g>
    <g id="text_11">
     <!-- 2580 -->
     <g transform="translate(143.154984 321.776893)scale(0.1 -0.1)">
      <use xlink:href="#DejaVuSans-50"/>
      <use x="63.623047" xlink:href="#DejaVuSans-53"/>
      <use x="127.246094" xlink:href="#DejaVuSans-56"/>
      <use x="190.869141" xlink:href="#DejaVuSans-48"/>
     </g>
    </g>
   </g>
   <g id="xtick_10">
    <g id="line2d_12">
     <path d="M 197.354502 313.108033 
L 192.777487 315.012891 
" style="fill:none;stroke:#000000;stroke-linecap:square;stroke-width:0.8;"/>
    </g>
    <g id="text_12">
     <!-- 2582 -->
     <g transform="translate(172.800428 334.720904)scale(0.1 -0.1)">
      <use xlink:href="#DejaVuSans-50"/>
      <use x="63.623047" xlink:href="#DejaVuSans-53"/>
      <use x="127.246094" xlink:href="#DejaVuSans-56"/>
      <use x="190.869141" xlink:href="#DejaVuSans-50"/>
     </g>
    </g>
   </g>
   <g id="xtick_11">
    <g id="line2d_13">
     <path d="M 227.728112 326.164109 
L 223.149968 328.110114 
" style="fill:none;stroke:#000000;stroke-linecap:square;stroke-width:0.8;"/>
    </g>
    <g id="text_13">
     <!-- 2584 -->
     <g transform="translate(203.083057 347.943126)scale(0.1 -0.1)">
      <use xlink:href="#DejaVuSans-50"/>
      <use x="63.623047" xlink:href="#DejaVuSans-53"/>
      <use x="127.246094" xlink:href="#DejaVuSans-56"/>
      <use x="190.869141" xlink:href="#DejaVuSans-52"/>
     </g>
    </g>
   </g>
  </g>
  <g id="axis3d_3">
   <g id="line2d_14">
    <path d="M 65.01797 257.453033 
L 55.455988 88.814806 
" style="fill:none;stroke:#000000;stroke-linecap:square;stroke-width:0.8;"/>
   </g>
   <g id="text_14">
    <!-- F3 -->
    <defs>
     <path d="M 40.578125 39.3125 
Q 47.65625 37.796875 51.625 33 
Q 55.609375 28.21875 55.609375 21.1875 
Q 55.609375 10.40625 48.1875 4.484375 
Q 40.765625 -1.421875 27.09375 -1.421875 
Q 22.515625 -1.421875 17.65625 -0.515625 
Q 12.796875 0.390625 7.625 2.203125 
L 7.625 11.71875 
Q 11.71875 9.328125 16.59375 8.109375 
Q 21.484375 6.890625 26.8125 6.890625 
Q 36.078125 6.890625 40.9375 10.546875 
Q 45.796875 14.203125 45.796875 21.1875 
Q 45.796875 27.640625 41.28125 31.265625 
Q 36.765625 34.90625 28.71875 34.90625 
L 20.21875 34.90625 
L 20.21875 43.015625 
L 29.109375 43.015625 
Q 36.375 43.015625 40.234375 45.921875 
Q 44.09375 48.828125 44.09375 54.296875 
Q 44.09375 59.90625 40.109375 62.90625 
Q 36.140625 65.921875 28.71875 65.921875 
Q 24.65625 65.921875 20.015625 65.03125 
Q 15.375 64.15625 9.8125 62.3125 
L 9.8125 71.09375 
Q 15.4375 72.65625 20.34375 73.4375 
Q 25.25 74.21875 29.59375 74.21875 
Q 40.828125 74.21875 47.359375 69.109375 
Q 53.90625 64.015625 53.90625 55.328125 
Q 53.90625 49.265625 50.4375 45.09375 
Q 46.96875 40.921875 40.578125 39.3125 
z
" id="DejaVuSans-51"/>
    </defs>
    <g transform="translate(10.62218 178.089105)scale(0.1 -0.1)">
     <use xlink:href="#DejaVuSans-70"/>
     <use x="57.519531" xlink:href="#DejaVuSans-51"/>
    </g>
   </g>
   <g id="Line3DCollection_3">
    <path d="M 64.35429 245.748154 
L 243.827027 178.262849 
L 423.299765 245.748154 
" style="fill:none;stroke:#b0b0b0;stroke-width:0.8;"/>
    <path d="M 62.771369 217.831256 
L 243.827027 151.439308 
L 424.882685 217.831256 
" style="fill:none;stroke:#b0b0b0;stroke-width:0.8;"/>
    <path d="M 61.160278 189.417531 
L 243.827027 124.166905 
L 426.493776 189.417531 
" style="fill:none;stroke:#b0b0b0;stroke-width:0.8;"/>
    <path d="M 59.520258 160.493597 
L 243.827027 96.43428 
L 428.133796 160.493597 
" style="fill:none;stroke:#b0b0b0;stroke-width:0.8;"/>
    <path d="M 57.850522 131.045587 
L 243.827027 68.229682 
L 429.803532 131.045587 
" style="fill:none;stroke:#b0b0b0;stroke-width:0.8;"/>
    <path d="M 56.150255 101.059128 
L 243.827027 39.540962 
L 431.503799 101.059128 
" style="fill:none;stroke:#b0b0b0;stroke-width:0.8;"/>
   </g>
   <g id="xtick_12">
    <g id="line2d_15">
     <path d="M 65.878904 245.174869 
L 61.30049 246.896443 
" style="fill:none;stroke:#000000;stroke-linecap:square;stroke-width:0.8;"/>
    </g>
    <g id="text_15">
     <!-- 7000 -->
     <g transform="translate(31.972752 253.346592)scale(0.1 -0.1)">
      <use xlink:href="#DejaVuSans-55"/>
      <use x="63.623047" xlink:href="#DejaVuSans-48"/>
      <use x="127.246094" xlink:href="#DejaVuSans-48"/>
      <use x="190.869141" xlink:href="#DejaVuSans-48"/>
     </g>
    </g>
   </g>
   <g id="xtick_13">
    <g id="line2d_16">
     <path d="M 64.31022 217.266969 
L 59.689012 218.961536 
" style="fill:none;stroke:#000000;stroke-linecap:square;stroke-width:0.8;"/>
    </g>
    <g id="text_16">
     <!-- 7500 -->
     <g transform="translate(30.216464 225.429693)scale(0.1 -0.1)">
      <use xlink:href="#DejaVuSans-55"/>
      <use x="63.623047" xlink:href="#DejaVuSans-53"/>
      <use x="127.246094" xlink:href="#DejaVuSans-48"/>
      <use x="190.869141" xlink:href="#DejaVuSans-48"/>
     </g>
    </g>
   </g>
   <g id="xtick_14">
    <g id="line2d_17">
     <path d="M 62.713634 188.862654 
L 58.048827 190.528976 
" style="fill:none;stroke:#000000;stroke-linecap:square;stroke-width:0.8;"/>
    </g>
    <g id="text_17">
     <!-- 8000 -->
     <g transform="translate(28.42892 197.015968)scale(0.1 -0.1)">
      <use xlink:href="#DejaVuSans-56"/>
      <use x="63.623047" xlink:href="#DejaVuSans-48"/>
      <use x="127.246094" xlink:href="#DejaVuSans-48"/>
      <use x="190.869141" xlink:href="#DejaVuSans-48"/>
     </g>
    </g>
   </g>
   <g id="xtick_15">
    <g id="line2d_18">
     <path d="M 61.088393 159.948561 
L 56.379159 161.585345 
" style="fill:none;stroke:#000000;stroke-linecap:square;stroke-width:0.8;"/>
    </g>
    <g id="text_18">
     <!-- 8500 -->
     <g transform="translate(26.609278 168.092034)scale(0.1 -0.1)">
      <use xlink:href="#DejaVuSans-56"/>
      <use x="63.623047" xlink:href="#DejaVuSans-53"/>
      <use x="127.246094" xlink:href="#DejaVuSans-48"/>
      <use x="190.869141" xlink:href="#DejaVuSans-48"/>
     </g>
    </g>
   </g>
   <g id="xtick_16">
    <g id="line2d_19">
     <path d="M 59.43372 130.510842 
L 54.679208 132.116738 
" style="fill:none;stroke:#000000;stroke-linecap:square;stroke-width:0.8;"/>
    </g>
    <g id="text_19">
     <!-- 9000 -->
     <defs>
      <path d="M 10.984375 1.515625 
L 10.984375 10.5 
Q 14.703125 8.734375 18.5 7.8125 
Q 22.3125 6.890625 25.984375 6.890625 
Q 35.75 6.890625 40.890625 13.453125 
Q 46.046875 20.015625 46.78125 33.40625 
Q 43.953125 29.203125 39.59375 26.953125 
Q 35.25 24.703125 29.984375 24.703125 
Q 19.046875 24.703125 12.671875 31.3125 
Q 6.296875 37.9375 6.296875 49.421875 
Q 6.296875 60.640625 12.9375 67.421875 
Q 19.578125 74.21875 30.609375 74.21875 
Q 43.265625 74.21875 49.921875 64.515625 
Q 56.59375 54.828125 56.59375 36.375 
Q 56.59375 19.140625 48.40625 8.859375 
Q 40.234375 -1.421875 26.421875 -1.421875 
Q 22.703125 -1.421875 18.890625 -0.6875 
Q 15.09375 0.046875 10.984375 1.515625 
z
M 30.609375 32.421875 
Q 37.25 32.421875 41.125 36.953125 
Q 45.015625 41.5 45.015625 49.421875 
Q 45.015625 57.28125 41.125 61.84375 
Q 37.25 66.40625 30.609375 66.40625 
Q 23.96875 66.40625 20.09375 61.84375 
Q 16.21875 57.28125 16.21875 49.421875 
Q 16.21875 41.5 20.09375 36.953125 
Q 23.96875 32.421875 30.609375 32.421875 
z
" id="DejaVuSans-57"/>
     </defs>
     <g transform="translate(24.756667 138.644024)scale(0.1 -0.1)">
      <use xlink:href="#DejaVuSans-57"/>
      <use x="63.623047" xlink:href="#DejaVuSans-48"/>
      <use x="127.246094" xlink:href="#DejaVuSans-48"/>
      <use x="190.869141" xlink:href="#DejaVuSans-48"/>
     </g>
    </g>
   </g>
   <g id="xtick_17">
    <g id="line2d_20">
     <path d="M 57.748807 100.535142 
L 52.94814 102.108742 
" style="fill:none;stroke:#000000;stroke-linecap:square;stroke-width:0.8;"/>
    </g>
    <g id="text_20">
     <!-- 9500 -->
     <g transform="translate(22.87018 108.657565)scale(0.1 -0.1)">
      <use xlink:href="#DejaVuSans-57"/>
      <use x="63.623047" xlink:href="#DejaVuSans-53"/>
      <use x="127.246094" xlink:href="#DejaVuSans-48"/>
      <use x="190.869141" xlink:href="#DejaVuSans-48"/>
     </g>
    </g>
   </g>
  </g>
  <g id="axes_1">
   <g id="line2d_21">
    <defs>
     <path d="M 0 2.5 
C 0.663008 2.5 1.29895 2.236584 1.767767 1.767767 
C 2.236584 1.29895 2.5 0.663008 2.5 0 
C 2.5 -0.663008 2.236584 -1.29895 1.767767 -1.767767 
C 1.29895 -2.236584 0.663008 -2.5 0 -2.5 
C -0.663008 -2.5 -1.29895 -2.236584 -1.767767 -1.767767 
C -2.236584 -1.29895 -2.5 -0.663008 -2.5 0 
C -2.5 0.663008 -2.236584 1.29895 -1.767767 1.767767 
C -1.29895 2.236584 -0.663008 2.5 0 2.5 
z
" id="m2687f4fbbb" style="stroke:#ff0000;"/>
    </defs>
    <g clip-path="url(#p1a65073fb5)">
     <use style="fill:#ff0000;stroke:#ff0000;" x="156.33758" xlink:href="#m2687f4fbbb" y="217.392276"/>
     <use style="fill:#ff0000;stroke:#ff0000;" x="144.030718" xlink:href="#m2687f4fbbb" y="224.336806"/>
     <use style="fill:#ff0000;stroke:#ff0000;" x="157.846877" xlink:href="#m2687f4fbbb" y="216.293288"/>
     <use style="fill:#ff0000;stroke:#ff0000;" x="218.198754" xlink:href="#m2687f4fbbb" y="169.002585"/>
     <use style="fill:#ff0000;stroke:#ff0000;" x="233.76827" xlink:href="#m2687f4fbbb" y="103.775271"/>
     <use style="fill:#ff0000;stroke:#ff0000;" x="175.384735" xlink:href="#m2687f4fbbb" y="204.918678"/>
     <use style="fill:#ff0000;stroke:#ff0000;" x="189.145347" xlink:href="#m2687f4fbbb" y="195.568647"/>
     <use style="fill:#ff0000;stroke:#ff0000;" x="141.464076" xlink:href="#m2687f4fbbb" y="228.850172"/>
     <use style="fill:#ff0000;stroke:#ff0000;" x="194.667865" xlink:href="#m2687f4fbbb" y="187.878117"/>
     <use style="fill:#ff0000;stroke:#ff0000;" x="167.022561" xlink:href="#m2687f4fbbb" y="211.436225"/>
     <use style="fill:#ff0000;stroke:#ff0000;" x="184.644458" xlink:href="#m2687f4fbbb" y="198.739594"/>
     <use style="fill:#ff0000;stroke:#ff0000;" x="290.299576" xlink:href="#m2687f4fbbb" y="200.203116"/>
     <use style="fill:#ff0000;stroke:#ff0000;" x="171.394838" xlink:href="#m2687f4fbbb" y="209.156901"/>
     <use style="fill:#ff0000;stroke:#ff0000;" x="204.210721" xlink:href="#m2687f4fbbb" y="181.648663"/>
     <use style="fill:#ff0000;stroke:#ff0000;" x="160.285863" xlink:href="#m2687f4fbbb" y="215.340123"/>
     <use style="fill:#ff0000;stroke:#ff0000;" x="162.246069" xlink:href="#m2687f4fbbb" y="214.131046"/>
     <use style="fill:#ff0000;stroke:#ff0000;" x="215.220148" xlink:href="#m2687f4fbbb" y="170.692194"/>
     <use style="fill:#ff0000;stroke:#ff0000;" x="152.531959" xlink:href="#m2687f4fbbb" y="219.846147"/>
     <use style="fill:#ff0000;stroke:#ff0000;" x="167.022561" xlink:href="#m2687f4fbbb" y="211.436225"/>
     <use style="fill:#ff0000;stroke:#ff0000;" x="243.827027" xlink:href="#m2687f4fbbb" y="277.957093"/>
     <use style="fill:#ff0000;stroke:#ff0000;" x="202.198722" xlink:href="#m2687f4fbbb" y="184.531453"/>
     <use style="fill:#ff0000;stroke:#ff0000;" x="180.089306" xlink:href="#m2687f4fbbb" y="200.984798"/>
     <use style="fill:#ff0000;stroke:#ff0000;" x="116.650019" xlink:href="#m2687f4fbbb" y="243.166059"/>
     <use style="fill:#ff0000;stroke:#ff0000;" x="135.246472" xlink:href="#m2687f4fbbb" y="231.40371"/>
     <use style="fill:#ff0000;stroke:#ff0000;" x="116.650019" xlink:href="#m2687f4fbbb" y="243.166059"/>
     <use style="fill:#ff0000;stroke:#ff0000;" x="143.088622" xlink:href="#m2687f4fbbb" y="225.116902"/>
     <use style="fill:#ff0000;stroke:#ff0000;" x="215.220148" xlink:href="#m2687f4fbbb" y="170.692194"/>
     <use style="fill:#ff0000;stroke:#ff0000;" x="211.044198" xlink:href="#m2687f4fbbb" y="178.773762"/>
     <use style="fill:#ff0000;stroke:#ff0000;" x="141.464076" xlink:href="#m2687f4fbbb" y="228.850172"/>
     <use style="fill:#ff0000;stroke:#ff0000;" x="178.419384" xlink:href="#m2687f4fbbb" y="203.134415"/>
     <use style="fill:#ff0000;stroke:#ff0000;" x="211.044198" xlink:href="#m2687f4fbbb" y="178.773762"/>
     <use style="fill:#ff0000;stroke:#ff0000;" x="193.185045" xlink:href="#m2687f4fbbb" y="189.053382"/>
     <use style="fill:#ff0000;stroke:#ff0000;" x="189.145347" xlink:href="#m2687f4fbbb" y="195.568647"/>
     <use style="fill:#ff0000;stroke:#ff0000;" x="184.644458" xlink:href="#m2687f4fbbb" y="198.739594"/>
     <use style="fill:#ff0000;stroke:#ff0000;" x="193.185045" xlink:href="#m2687f4fbbb" y="189.053382"/>
     <use style="fill:#ff0000;stroke:#ff0000;" x="143.088622" xlink:href="#m2687f4fbbb" y="225.116902"/>
     <use style="fill:#ff0000;stroke:#ff0000;" x="311.37234" xlink:href="#m2687f4fbbb" y="173.721377"/>
     <use style="fill:#ff0000;stroke:#ff0000;" x="151.020171" xlink:href="#m2687f4fbbb" y="220.995331"/>
     <use style="fill:#ff0000;stroke:#ff0000;" x="116.650019" xlink:href="#m2687f4fbbb" y="243.166059"/>
     <use style="fill:#ff0000;stroke:#ff0000;" x="157.846877" xlink:href="#m2687f4fbbb" y="216.293288"/>
     <use style="fill:#ff0000;stroke:#ff0000;" x="175.384735" xlink:href="#m2687f4fbbb" y="204.918678"/>
     <use style="fill:#ff0000;stroke:#ff0000;" x="343.687638" xlink:href="#m2687f4fbbb" y="115.991783"/>
     <use style="fill:#ff0000;stroke:#ff0000;" x="249.758025" xlink:href="#m2687f4fbbb" y="263.395602"/>
     <use style="fill:#ff0000;stroke:#ff0000;" x="290.299576" xlink:href="#m2687f4fbbb" y="200.203116"/>
     <use style="fill:#ff0000;stroke:#ff0000;" x="179.909594" xlink:href="#m2687f4fbbb" y="201.904363"/>
     <use style="fill:#ff0000;stroke:#ff0000;" x="193.185045" xlink:href="#m2687f4fbbb" y="189.053382"/>
     <use style="fill:#ff0000;stroke:#ff0000;" x="228.273541" xlink:href="#m2687f4fbbb" y="109.273375"/>
     <use style="fill:#ff0000;stroke:#ff0000;" x="299.765236" xlink:href="#m2687f4fbbb" y="181.754892"/>
     <use style="fill:#ff0000;stroke:#ff0000;" x="135.246472" xlink:href="#m2687f4fbbb" y="231.40371"/>
     <use style="fill:#ff0000;stroke:#ff0000;" x="211.044198" xlink:href="#m2687f4fbbb" y="178.773762"/>
     <use style="fill:#ff0000;stroke:#ff0000;" x="230.999282" xlink:href="#m2687f4fbbb" y="106.501031"/>
     <use style="fill:#ff0000;stroke:#ff0000;" x="116.650019" xlink:href="#m2687f4fbbb" y="243.166059"/>
     <use style="fill:#ff0000;stroke:#ff0000;" x="156.33758" xlink:href="#m2687f4fbbb" y="217.392276"/>
     <use style="fill:#ff0000;stroke:#ff0000;" x="230.999282" xlink:href="#m2687f4fbbb" y="106.501031"/>
     <use style="fill:#ff0000;stroke:#ff0000;" x="179.909594" xlink:href="#m2687f4fbbb" y="201.904363"/>
     <use style="fill:#ff0000;stroke:#ff0000;" x="204.210721" xlink:href="#m2687f4fbbb" y="181.648663"/>
     <use style="fill:#ff0000;stroke:#ff0000;" x="233.76827" xlink:href="#m2687f4fbbb" y="103.775271"/>
     <use style="fill:#ff0000;stroke:#ff0000;" x="204.210721" xlink:href="#m2687f4fbbb" y="181.648663"/>
     <use style="fill:#ff0000;stroke:#ff0000;" x="243.827027" xlink:href="#m2687f4fbbb" y="277.957093"/>
     <use style="fill:#ff0000;stroke:#ff0000;" x="312.258836" xlink:href="#m2687f4fbbb" y="163.959051"/>
     <use style="fill:#ff0000;stroke:#ff0000;" x="194.667865" xlink:href="#m2687f4fbbb" y="187.878117"/>
     <use style="fill:#ff0000;stroke:#ff0000;" x="237.005238" xlink:href="#m2687f4fbbb" y="102.294961"/>
     <use style="fill:#ff0000;stroke:#ff0000;" x="224.784188" xlink:href="#m2687f4fbbb" y="128.730408"/>
     <use style="fill:#ff0000;stroke:#ff0000;" x="144.030718" xlink:href="#m2687f4fbbb" y="224.336806"/>
     <use style="fill:#ff0000;stroke:#ff0000;" x="204.210721" xlink:href="#m2687f4fbbb" y="181.648663"/>
     <use style="fill:#ff0000;stroke:#ff0000;" x="194.667865" xlink:href="#m2687f4fbbb" y="187.878117"/>
     <use style="fill:#ff0000;stroke:#ff0000;" x="193.185045" xlink:href="#m2687f4fbbb" y="189.053382"/>
     <use style="fill:#ff0000;stroke:#ff0000;" x="141.464076" xlink:href="#m2687f4fbbb" y="228.850172"/>
     <use style="fill:#ff0000;stroke:#ff0000;" x="203.674048" xlink:href="#m2687f4fbbb" y="183.313376"/>
     <use style="fill:#ff0000;stroke:#ff0000;" x="165.522839" xlink:href="#m2687f4fbbb" y="212.625413"/>
     <use style="fill:#ff0000;stroke:#ff0000;" x="180.089306" xlink:href="#m2687f4fbbb" y="200.984798"/>
     <use style="fill:#ff0000;stroke:#ff0000;" x="215.220148" xlink:href="#m2687f4fbbb" y="170.692194"/>
     <use style="fill:#ff0000;stroke:#ff0000;" x="152.531959" xlink:href="#m2687f4fbbb" y="219.846147"/>
     <use style="fill:#ff0000;stroke:#ff0000;" x="243.827027" xlink:href="#m2687f4fbbb" y="98.827702"/>
     <use style="fill:#ff0000;stroke:#ff0000;" x="218.198754" xlink:href="#m2687f4fbbb" y="169.002585"/>
     <use style="fill:#ff0000;stroke:#ff0000;" x="178.419384" xlink:href="#m2687f4fbbb" y="203.134415"/>
     <use style="fill:#ff0000;stroke:#ff0000;" x="143.088622" xlink:href="#m2687f4fbbb" y="225.116902"/>
     <use style="fill:#ff0000;stroke:#ff0000;" x="162.246069" xlink:href="#m2687f4fbbb" y="214.131046"/>
     <use style="fill:#ff0000;stroke:#ff0000;" x="184.644458" xlink:href="#m2687f4fbbb" y="198.739594"/>
     <use style="fill:#ff0000;stroke:#ff0000;" x="215.220148" xlink:href="#m2687f4fbbb" y="170.692194"/>
     <use style="fill:#ff0000;stroke:#ff0000;" x="281.943468" xlink:href="#m2687f4fbbb" y="213.479121"/>
     <use style="fill:#ff0000;stroke:#ff0000;" x="243.827027" xlink:href="#m2687f4fbbb" y="98.827702"/>
     <use style="fill:#ff0000;stroke:#ff0000;" x="215.220148" xlink:href="#m2687f4fbbb" y="170.692194"/>
     <use style="fill:#ff0000;stroke:#ff0000;" x="162.246069" xlink:href="#m2687f4fbbb" y="214.131046"/>
     <use style="fill:#ff0000;stroke:#ff0000;" x="160.285863" xlink:href="#m2687f4fbbb" y="215.340123"/>
     <use style="fill:#ff0000;stroke:#ff0000;" x="249.758025" xlink:href="#m2687f4fbbb" y="263.395602"/>
     <use style="fill:#ff0000;stroke:#ff0000;" x="189.145347" xlink:href="#m2687f4fbbb" y="195.568647"/>
     <use style="fill:#ff0000;stroke:#ff0000;" x="141.464076" xlink:href="#m2687f4fbbb" y="228.850172"/>
     <use style="fill:#ff0000;stroke:#ff0000;" x="128.753107" xlink:href="#m2687f4fbbb" y="235.999777"/>
     <use style="fill:#ff0000;stroke:#ff0000;" x="194.667865" xlink:href="#m2687f4fbbb" y="187.878117"/>
     <use style="fill:#ff0000;stroke:#ff0000;" x="230.999282" xlink:href="#m2687f4fbbb" y="106.501031"/>
     <use style="fill:#ff0000;stroke:#ff0000;" x="193.185045" xlink:href="#m2687f4fbbb" y="189.053382"/>
     <use style="fill:#ff0000;stroke:#ff0000;" x="217.121933" xlink:href="#m2687f4fbbb" y="169.699399"/>
     <use style="fill:#ff0000;stroke:#ff0000;" x="299.765236" xlink:href="#m2687f4fbbb" y="181.754892"/>
     <use style="fill:#ff0000;stroke:#ff0000;" x="116.650019" xlink:href="#m2687f4fbbb" y="243.166059"/>
     <use style="fill:#ff0000;stroke:#ff0000;" x="141.086932" xlink:href="#m2687f4fbbb" y="229.043869"/>
     <use style="fill:#ff0000;stroke:#ff0000;" x="162.743407" xlink:href="#m2687f4fbbb" y="214.675851"/>
     <use style="fill:#ff0000;stroke:#ff0000;" x="224.455899" xlink:href="#m2687f4fbbb" y="128.978138"/>
     <use style="fill:#ff0000;stroke:#ff0000;" x="184.644458" xlink:href="#m2687f4fbbb" y="198.739594"/>
     <use style="fill:#ff0000;stroke:#ff0000;" x="312.258836" xlink:href="#m2687f4fbbb" y="163.959051"/>
    </g>
   </g>
   <g id="text_21">
    <!-- Pareto Front Plot -->
    <defs>
     <path d="M 19.671875 64.796875 
L 19.671875 37.40625 
L 32.078125 37.40625 
Q 38.96875 37.40625 42.71875 40.96875 
Q 46.484375 44.53125 46.484375 51.125 
Q 46.484375 57.671875 42.71875 61.234375 
Q 38.96875 64.796875 32.078125 64.796875 
z
M 9.8125 72.90625 
L 32.078125 72.90625 
Q 44.34375 72.90625 50.609375 67.359375 
Q 56.890625 61.8125 56.890625 51.125 
Q 56.890625 40.328125 50.609375 34.8125 
Q 44.34375 29.296875 32.078125 29.296875 
L 19.671875 29.296875 
L 19.671875 0 
L 9.8125 0 
z
" id="DejaVuSans-80"/>
     <path d="M 34.28125 27.484375 
Q 23.390625 27.484375 19.1875 25 
Q 14.984375 22.515625 14.984375 16.5 
Q 14.984375 11.71875 18.140625 8.90625 
Q 21.296875 6.109375 26.703125 6.109375 
Q 34.1875 6.109375 38.703125 11.40625 
Q 43.21875 16.703125 43.21875 25.484375 
L 43.21875 27.484375 
z
M 52.203125 31.203125 
L 52.203125 0 
L 43.21875 0 
L 43.21875 8.296875 
Q 40.140625 3.328125 35.546875 0.953125 
Q 30.953125 -1.421875 24.3125 -1.421875 
Q 15.921875 -1.421875 10.953125 3.296875 
Q 6 8.015625 6 15.921875 
Q 6 25.140625 12.171875 29.828125 
Q 18.359375 34.515625 30.609375 34.515625 
L 43.21875 34.515625 
L 43.21875 35.40625 
Q 43.21875 41.609375 39.140625 45 
Q 35.0625 48.390625 27.6875 48.390625 
Q 23 48.390625 18.546875 47.265625 
Q 14.109375 46.140625 10.015625 43.890625 
L 10.015625 52.203125 
Q 14.9375 54.109375 19.578125 55.046875 
Q 24.21875 56 28.609375 56 
Q 40.484375 56 46.34375 49.84375 
Q 52.203125 43.703125 52.203125 31.203125 
z
" id="DejaVuSans-97"/>
     <path d="M 41.109375 46.296875 
Q 39.59375 47.171875 37.8125 47.578125 
Q 36.03125 48 33.890625 48 
Q 26.265625 48 22.1875 43.046875 
Q 18.109375 38.09375 18.109375 28.8125 
L 18.109375 0 
L 9.078125 0 
L 9.078125 54.6875 
L 18.109375 54.6875 
L 18.109375 46.1875 
Q 20.953125 51.171875 25.484375 53.578125 
Q 30.03125 56 36.53125 56 
Q 37.453125 56 38.578125 55.875 
Q 39.703125 55.765625 41.0625 55.515625 
z
" id="DejaVuSans-114"/>
     <path d="M 56.203125 29.59375 
L 56.203125 25.203125 
L 14.890625 25.203125 
Q 15.484375 15.921875 20.484375 11.0625 
Q 25.484375 6.203125 34.421875 6.203125 
Q 39.59375 6.203125 44.453125 7.46875 
Q 49.3125 8.734375 54.109375 11.28125 
L 54.109375 2.78125 
Q 49.265625 0.734375 44.1875 -0.34375 
Q 39.109375 -1.421875 33.890625 -1.421875 
Q 20.796875 -1.421875 13.15625 6.1875 
Q 5.515625 13.8125 5.515625 26.8125 
Q 5.515625 40.234375 12.765625 48.109375 
Q 20.015625 56 32.328125 56 
Q 43.359375 56 49.78125 48.890625 
Q 56.203125 41.796875 56.203125 29.59375 
z
M 47.21875 32.234375 
Q 47.125 39.59375 43.09375 43.984375 
Q 39.0625 48.390625 32.421875 48.390625 
Q 24.90625 48.390625 20.390625 44.140625 
Q 15.875 39.890625 15.1875 32.171875 
z
" id="DejaVuSans-101"/>
     <path d="M 18.3125 70.21875 
L 18.3125 54.6875 
L 36.8125 54.6875 
L 36.8125 47.703125 
L 18.3125 47.703125 
L 18.3125 18.015625 
Q 18.3125 11.328125 20.140625 9.421875 
Q 21.96875 7.515625 27.59375 7.515625 
L 36.8125 7.515625 
L 36.8125 0 
L 27.59375 0 
Q 17.1875 0 13.234375 3.875 
Q 9.28125 7.765625 9.28125 18.015625 
L 9.28125 47.703125 
L 2.6875 47.703125 
L 2.6875 54.6875 
L 9.28125 54.6875 
L 9.28125 70.21875 
z
" id="DejaVuSans-116"/>
     <path d="M 30.609375 48.390625 
Q 23.390625 48.390625 19.1875 42.75 
Q 14.984375 37.109375 14.984375 27.296875 
Q 14.984375 17.484375 19.15625 11.84375 
Q 23.34375 6.203125 30.609375 6.203125 
Q 37.796875 6.203125 41.984375 11.859375 
Q 46.1875 17.53125 46.1875 27.296875 
Q 46.1875 37.015625 41.984375 42.703125 
Q 37.796875 48.390625 30.609375 48.390625 
z
M 30.609375 56 
Q 42.328125 56 49.015625 48.375 
Q 55.71875 40.765625 55.71875 27.296875 
Q 55.71875 13.875 49.015625 6.21875 
Q 42.328125 -1.421875 30.609375 -1.421875 
Q 18.84375 -1.421875 12.171875 6.21875 
Q 5.515625 13.875 5.515625 27.296875 
Q 5.515625 40.765625 12.171875 48.375 
Q 18.84375 56 30.609375 56 
z
" id="DejaVuSans-111"/>
     <path id="DejaVuSans-32"/>
     <path d="M 54.890625 33.015625 
L 54.890625 0 
L 45.90625 0 
L 45.90625 32.71875 
Q 45.90625 40.484375 42.875 44.328125 
Q 39.84375 48.1875 33.796875 48.1875 
Q 26.515625 48.1875 22.3125 43.546875 
Q 18.109375 38.921875 18.109375 30.90625 
L 18.109375 0 
L 9.078125 0 
L 9.078125 54.6875 
L 18.109375 54.6875 
L 18.109375 46.1875 
Q 21.34375 51.125 25.703125 53.5625 
Q 30.078125 56 35.796875 56 
Q 45.21875 56 50.046875 50.171875 
Q 54.890625 44.34375 54.890625 33.015625 
z
" id="DejaVuSans-110"/>
     <path d="M 9.421875 75.984375 
L 18.40625 75.984375 
L 18.40625 0 
L 9.421875 0 
z
" id="DejaVuSans-108"/>
    </defs>
    <g transform="translate(188.233125 28.848)scale(0.12 -0.12)">
     <use xlink:href="#DejaVuSans-80"/>
     <use x="55.802734" xlink:href="#DejaVuSans-97"/>
     <use x="117.082031" xlink:href="#DejaVuSans-114"/>
     <use x="155.945312" xlink:href="#DejaVuSans-101"/>
     <use x="217.46875" xlink:href="#DejaVuSans-116"/>
     <use x="256.677734" xlink:href="#DejaVuSans-111"/>
     <use x="317.859375" xlink:href="#DejaVuSans-32"/>
     <use x="349.646484" xlink:href="#DejaVuSans-70"/>
     <use x="399.916016" xlink:href="#DejaVuSans-114"/>
     <use x="438.779297" xlink:href="#DejaVuSans-111"/>
     <use x="499.960938" xlink:href="#DejaVuSans-110"/>
     <use x="563.339844" xlink:href="#DejaVuSans-116"/>
     <use x="602.548828" xlink:href="#DejaVuSans-32"/>
     <use x="634.335938" xlink:href="#DejaVuSans-80"/>
     <use x="694.638672" xlink:href="#DejaVuSans-108"/>
     <use x="722.421875" xlink:href="#DejaVuSans-111"/>
     <use x="783.603516" xlink:href="#DejaVuSans-116"/>
    </g>
   </g>
   <g id="legend_1">
    <g id="patch_6">
     <path d="M 384.38125 29.878125 
L 461 29.878125 
Q 463 29.878125 463 27.878125 
L 463 14.2 
Q 463 12.2 461 12.2 
L 384.38125 12.2 
Q 382.38125 12.2 382.38125 14.2 
L 382.38125 27.878125 
Q 382.38125 29.878125 384.38125 29.878125 
z
" style="fill:#ffffff;opacity:0.8;stroke:#cccccc;stroke-linejoin:miter;"/>
    </g>
    <g id="line2d_22"/>
    <g id="line2d_23">
     <g>
      <use style="fill:#ff0000;stroke:#ff0000;" x="396.38125" xlink:href="#m2687f4fbbb" y="20.298437"/>
     </g>
    </g>
    <g id="text_22">
     <!-- MOEA PF -->
     <defs>
      <path d="M 9.8125 72.90625 
L 24.515625 72.90625 
L 43.109375 23.296875 
L 61.8125 72.90625 
L 76.515625 72.90625 
L 76.515625 0 
L 66.890625 0 
L 66.890625 64.015625 
L 48.09375 14.015625 
L 38.1875 14.015625 
L 19.390625 64.015625 
L 19.390625 0 
L 9.8125 0 
z
" id="DejaVuSans-77"/>
      <path d="M 39.40625 66.21875 
Q 28.65625 66.21875 22.328125 58.203125 
Q 16.015625 50.203125 16.015625 36.375 
Q 16.015625 22.609375 22.328125 14.59375 
Q 28.65625 6.59375 39.40625 6.59375 
Q 50.140625 6.59375 56.421875 14.59375 
Q 62.703125 22.609375 62.703125 36.375 
Q 62.703125 50.203125 56.421875 58.203125 
Q 50.140625 66.21875 39.40625 66.21875 
z
M 39.40625 74.21875 
Q 54.734375 74.21875 63.90625 63.9375 
Q 73.09375 53.65625 73.09375 36.375 
Q 73.09375 19.140625 63.90625 8.859375 
Q 54.734375 -1.421875 39.40625 -1.421875 
Q 24.03125 -1.421875 14.8125 8.828125 
Q 5.609375 19.09375 5.609375 36.375 
Q 5.609375 53.65625 14.8125 63.9375 
Q 24.03125 74.21875 39.40625 74.21875 
z
" id="DejaVuSans-79"/>
      <path d="M 9.8125 72.90625 
L 55.90625 72.90625 
L 55.90625 64.59375 
L 19.671875 64.59375 
L 19.671875 43.015625 
L 54.390625 43.015625 
L 54.390625 34.71875 
L 19.671875 34.71875 
L 19.671875 8.296875 
L 56.78125 8.296875 
L 56.78125 0 
L 9.8125 0 
z
" id="DejaVuSans-69"/>
      <path d="M 34.1875 63.1875 
L 20.796875 26.90625 
L 47.609375 26.90625 
z
M 28.609375 72.90625 
L 39.796875 72.90625 
L 67.578125 0 
L 57.328125 0 
L 50.6875 18.703125 
L 17.828125 18.703125 
L 11.1875 0 
L 0.78125 0 
z
" id="DejaVuSans-65"/>
     </defs>
     <g transform="translate(414.38125 23.798437)scale(0.1 -0.1)">
      <use xlink:href="#DejaVuSans-77"/>
      <use x="86.279297" xlink:href="#DejaVuSans-79"/>
      <use x="164.990234" xlink:href="#DejaVuSans-69"/>
      <use x="228.173828" xlink:href="#DejaVuSans-65"/>
      <use x="296.582031" xlink:href="#DejaVuSans-32"/>
      <use x="328.369141" xlink:href="#DejaVuSans-80"/>
      <use x="388.671875" xlink:href="#DejaVuSans-70"/>
     </g>
    </g>
   </g>
  </g>
 </g>
 <defs>
  <clipPath id="p1a65073fb5">
   <rect height="345.6" width="460.8" x="7.2" y="7.2"/>
  </clipPath>
 </defs>
</svg>
