<?xml version="1.0" encoding="utf-8" standalone="no"?>
<!DOCTYPE svg PUBLIC "-//W3C//DTD SVG 1.1//EN"
  "http://www.w3.org/Graphics/SVG/1.1/DTD/svg11.dtd">
<!-- Created with matplotlib (https://matplotlib.org/) -->
<svg height="325.986375pt" version="1.1" viewBox="0 0 419.665312 325.986375" width="419.665312pt" xmlns="http://www.w3.org/2000/svg" xmlns:xlink="http://www.w3.org/1999/xlink">
 <defs>
  <style type="text/css">
*{stroke-linecap:butt;stroke-linejoin:round;}
  </style>
 </defs>
 <g id="figure_1">
  <g id="patch_1">
   <path d="M 0 325.986375 
L 419.665312 325.986375 
L 419.665312 0 
L 0 0 
z
" style="fill:#ffffff;"/>
  </g>
  <g id="axes_1">
   <g id="patch_2">
    <path d="M 55.345313 288.430125 
L 412.465312 288.430125 
L 412.465312 22.318125 
L 55.345313 22.318125 
z
" style="fill:#ffffff;"/>
   </g>
   <g id="matplotlib.axis_1">
    <g id="xtick_1">
     <g id="line2d_1">
      <path clip-path="url(#p58055d2c75)" d="M 71.25306 288.430125 
L 71.25306 22.318125 
" style="fill:none;stroke:#b0b0b0;stroke-linecap:square;stroke-width:0.8;"/>
     </g>
     <g id="line2d_2">
      <defs>
       <path d="M 0 0 
L 0 3.5 
" id="m344b51bb71" style="stroke:#000000;stroke-width:0.8;"/>
      </defs>
      <g>
       <use style="stroke:#000000;stroke-width:0.8;" x="71.25306" xlink:href="#m344b51bb71" y="288.430125"/>
      </g>
     </g>
     <g id="text_1">
      <!-- 0 -->
      <defs>
       <path d="M 31.78125 66.40625 
Q 24.171875 66.40625 20.328125 58.90625 
Q 16.5 51.421875 16.5 36.375 
Q 16.5 21.390625 20.328125 13.890625 
Q 24.171875 6.390625 31.78125 6.390625 
Q 39.453125 6.390625 43.28125 13.890625 
Q 47.125 21.390625 47.125 36.375 
Q 47.125 51.421875 43.28125 58.90625 
Q 39.453125 66.40625 31.78125 66.40625 
z
M 31.78125 74.21875 
Q 44.046875 74.21875 50.515625 64.515625 
Q 56.984375 54.828125 56.984375 36.375 
Q 56.984375 17.96875 50.515625 8.265625 
Q 44.046875 -1.421875 31.78125 -1.421875 
Q 19.53125 -1.421875 13.0625 8.265625 
Q 6.59375 17.96875 6.59375 36.375 
Q 6.59375 54.828125 13.0625 64.515625 
Q 19.53125 74.21875 31.78125 74.21875 
z
" id="DejaVuSans-48"/>
      </defs>
      <g transform="translate(68.07181 303.028562)scale(0.1 -0.1)">
       <use xlink:href="#DejaVuSans-48"/>
      </g>
     </g>
    </g>
    <g id="xtick_2">
     <g id="line2d_3">
      <path clip-path="url(#p58055d2c75)" d="M 136.248965 288.430125 
L 136.248965 22.318125 
" style="fill:none;stroke:#b0b0b0;stroke-linecap:square;stroke-width:0.8;"/>
     </g>
     <g id="line2d_4">
      <g>
       <use style="stroke:#000000;stroke-width:0.8;" x="136.248965" xlink:href="#m344b51bb71" y="288.430125"/>
      </g>
     </g>
     <g id="text_2">
      <!-- 200 -->
      <defs>
       <path d="M 19.1875 8.296875 
L 53.609375 8.296875 
L 53.609375 0 
L 7.328125 0 
L 7.328125 8.296875 
Q 12.9375 14.109375 22.625 23.890625 
Q 32.328125 33.6875 34.8125 36.53125 
Q 39.546875 41.84375 41.421875 45.53125 
Q 43.3125 49.21875 43.3125 52.78125 
Q 43.3125 58.59375 39.234375 62.25 
Q 35.15625 65.921875 28.609375 65.921875 
Q 23.96875 65.921875 18.8125 64.3125 
Q 13.671875 62.703125 7.8125 59.421875 
L 7.8125 69.390625 
Q 13.765625 71.78125 18.9375 73 
Q 24.125 74.21875 28.421875 74.21875 
Q 39.75 74.21875 46.484375 68.546875 
Q 53.21875 62.890625 53.21875 53.421875 
Q 53.21875 48.921875 51.53125 44.890625 
Q 49.859375 40.875 45.40625 35.40625 
Q 44.1875 33.984375 37.640625 27.21875 
Q 31.109375 20.453125 19.1875 8.296875 
z
" id="DejaVuSans-50"/>
      </defs>
      <g transform="translate(126.705215 303.028562)scale(0.1 -0.1)">
       <use xlink:href="#DejaVuSans-50"/>
       <use x="63.623047" xlink:href="#DejaVuSans-48"/>
       <use x="127.246094" xlink:href="#DejaVuSans-48"/>
      </g>
     </g>
    </g>
    <g id="xtick_3">
     <g id="line2d_5">
      <path clip-path="url(#p58055d2c75)" d="M 201.24487 288.430125 
L 201.24487 22.318125 
" style="fill:none;stroke:#b0b0b0;stroke-linecap:square;stroke-width:0.8;"/>
     </g>
     <g id="line2d_6">
      <g>
       <use style="stroke:#000000;stroke-width:0.8;" x="201.24487" xlink:href="#m344b51bb71" y="288.430125"/>
      </g>
     </g>
     <g id="text_3">
      <!-- 400 -->
      <defs>
       <path d="M 37.796875 64.3125 
L 12.890625 25.390625 
L 37.796875 25.390625 
z
M 35.203125 72.90625 
L 47.609375 72.90625 
L 47.609375 25.390625 
L 58.015625 25.390625 
L 58.015625 17.1875 
L 47.609375 17.1875 
L 47.609375 0 
L 37.796875 0 
L 37.796875 17.1875 
L 4.890625 17.1875 
L 4.890625 26.703125 
z
" id="DejaVuSans-52"/>
      </defs>
      <g transform="translate(191.70112 303.028562)scale(0.1 -0.1)">
       <use xlink:href="#DejaVuSans-52"/>
       <use x="63.623047" xlink:href="#DejaVuSans-48"/>
       <use x="127.246094" xlink:href="#DejaVuSans-48"/>
      </g>
     </g>
    </g>
    <g id="xtick_4">
     <g id="line2d_7">
      <path clip-path="url(#p58055d2c75)" d="M 266.240775 288.430125 
L 266.240775 22.318125 
" style="fill:none;stroke:#b0b0b0;stroke-linecap:square;stroke-width:0.8;"/>
     </g>
     <g id="line2d_8">
      <g>
       <use style="stroke:#000000;stroke-width:0.8;" x="266.240775" xlink:href="#m344b51bb71" y="288.430125"/>
      </g>
     </g>
     <g id="text_4">
      <!-- 600 -->
      <defs>
       <path d="M 33.015625 40.375 
Q 26.375 40.375 22.484375 35.828125 
Q 18.609375 31.296875 18.609375 23.390625 
Q 18.609375 15.53125 22.484375 10.953125 
Q 26.375 6.390625 33.015625 6.390625 
Q 39.65625 6.390625 43.53125 10.953125 
Q 47.40625 15.53125 47.40625 23.390625 
Q 47.40625 31.296875 43.53125 35.828125 
Q 39.65625 40.375 33.015625 40.375 
z
M 52.59375 71.296875 
L 52.59375 62.3125 
Q 48.875 64.0625 45.09375 64.984375 
Q 41.3125 65.921875 37.59375 65.921875 
Q 27.828125 65.921875 22.671875 59.328125 
Q 17.53125 52.734375 16.796875 39.40625 
Q 19.671875 43.65625 24.015625 45.921875 
Q 28.375 48.1875 33.59375 48.1875 
Q 44.578125 48.1875 50.953125 41.515625 
Q 57.328125 34.859375 57.328125 23.390625 
Q 57.328125 12.15625 50.6875 5.359375 
Q 44.046875 -1.421875 33.015625 -1.421875 
Q 20.359375 -1.421875 13.671875 8.265625 
Q 6.984375 17.96875 6.984375 36.375 
Q 6.984375 53.65625 15.1875 63.9375 
Q 23.390625 74.21875 37.203125 74.21875 
Q 40.921875 74.21875 44.703125 73.484375 
Q 48.484375 72.75 52.59375 71.296875 
z
" id="DejaVuSans-54"/>
      </defs>
      <g transform="translate(256.697025 303.028562)scale(0.1 -0.1)">
       <use xlink:href="#DejaVuSans-54"/>
       <use x="63.623047" xlink:href="#DejaVuSans-48"/>
       <use x="127.246094" xlink:href="#DejaVuSans-48"/>
      </g>
     </g>
    </g>
    <g id="xtick_5">
     <g id="line2d_9">
      <path clip-path="url(#p58055d2c75)" d="M 331.23668 288.430125 
L 331.23668 22.318125 
" style="fill:none;stroke:#b0b0b0;stroke-linecap:square;stroke-width:0.8;"/>
     </g>
     <g id="line2d_10">
      <g>
       <use style="stroke:#000000;stroke-width:0.8;" x="331.23668" xlink:href="#m344b51bb71" y="288.430125"/>
      </g>
     </g>
     <g id="text_5">
      <!-- 800 -->
      <defs>
       <path d="M 31.78125 34.625 
Q 24.75 34.625 20.71875 30.859375 
Q 16.703125 27.09375 16.703125 20.515625 
Q 16.703125 13.921875 20.71875 10.15625 
Q 24.75 6.390625 31.78125 6.390625 
Q 38.8125 6.390625 42.859375 10.171875 
Q 46.921875 13.96875 46.921875 20.515625 
Q 46.921875 27.09375 42.890625 30.859375 
Q 38.875 34.625 31.78125 34.625 
z
M 21.921875 38.8125 
Q 15.578125 40.375 12.03125 44.71875 
Q 8.5 49.078125 8.5 55.328125 
Q 8.5 64.0625 14.71875 69.140625 
Q 20.953125 74.21875 31.78125 74.21875 
Q 42.671875 74.21875 48.875 69.140625 
Q 55.078125 64.0625 55.078125 55.328125 
Q 55.078125 49.078125 51.53125 44.71875 
Q 48 40.375 41.703125 38.8125 
Q 48.828125 37.15625 52.796875 32.3125 
Q 56.78125 27.484375 56.78125 20.515625 
Q 56.78125 9.90625 50.3125 4.234375 
Q 43.84375 -1.421875 31.78125 -1.421875 
Q 19.734375 -1.421875 13.25 4.234375 
Q 6.78125 9.90625 6.78125 20.515625 
Q 6.78125 27.484375 10.78125 32.3125 
Q 14.796875 37.15625 21.921875 38.8125 
z
M 18.3125 54.390625 
Q 18.3125 48.734375 21.84375 45.5625 
Q 25.390625 42.390625 31.78125 42.390625 
Q 38.140625 42.390625 41.71875 45.5625 
Q 45.3125 48.734375 45.3125 54.390625 
Q 45.3125 60.0625 41.71875 63.234375 
Q 38.140625 66.40625 31.78125 66.40625 
Q 25.390625 66.40625 21.84375 63.234375 
Q 18.3125 60.0625 18.3125 54.390625 
z
" id="DejaVuSans-56"/>
      </defs>
      <g transform="translate(321.69293 303.028562)scale(0.1 -0.1)">
       <use xlink:href="#DejaVuSans-56"/>
       <use x="63.623047" xlink:href="#DejaVuSans-48"/>
       <use x="127.246094" xlink:href="#DejaVuSans-48"/>
      </g>
     </g>
    </g>
    <g id="xtick_6">
     <g id="line2d_11">
      <path clip-path="url(#p58055d2c75)" d="M 396.232585 288.430125 
L 396.232585 22.318125 
" style="fill:none;stroke:#b0b0b0;stroke-linecap:square;stroke-width:0.8;"/>
     </g>
     <g id="line2d_12">
      <g>
       <use style="stroke:#000000;stroke-width:0.8;" x="396.232585" xlink:href="#m344b51bb71" y="288.430125"/>
      </g>
     </g>
     <g id="text_6">
      <!-- 1000 -->
      <defs>
       <path d="M 12.40625 8.296875 
L 28.515625 8.296875 
L 28.515625 63.921875 
L 10.984375 60.40625 
L 10.984375 69.390625 
L 28.421875 72.90625 
L 38.28125 72.90625 
L 38.28125 8.296875 
L 54.390625 8.296875 
L 54.390625 0 
L 12.40625 0 
z
" id="DejaVuSans-49"/>
      </defs>
      <g transform="translate(383.507585 303.028562)scale(0.1 -0.1)">
       <use xlink:href="#DejaVuSans-49"/>
       <use x="63.623047" xlink:href="#DejaVuSans-48"/>
       <use x="127.246094" xlink:href="#DejaVuSans-48"/>
       <use x="190.869141" xlink:href="#DejaVuSans-48"/>
      </g>
     </g>
    </g>
    <g id="text_7">
     <!-- Generation Number -->
     <defs>
      <path d="M 59.515625 10.40625 
L 59.515625 29.984375 
L 43.40625 29.984375 
L 43.40625 38.09375 
L 69.28125 38.09375 
L 69.28125 6.78125 
Q 63.578125 2.734375 56.6875 0.65625 
Q 49.8125 -1.421875 42 -1.421875 
Q 24.90625 -1.421875 15.25 8.5625 
Q 5.609375 18.5625 5.609375 36.375 
Q 5.609375 54.25 15.25 64.234375 
Q 24.90625 74.21875 42 74.21875 
Q 49.125 74.21875 55.546875 72.453125 
Q 61.96875 70.703125 67.390625 67.28125 
L 67.390625 56.78125 
Q 61.921875 61.421875 55.765625 63.765625 
Q 49.609375 66.109375 42.828125 66.109375 
Q 29.4375 66.109375 22.71875 58.640625 
Q 16.015625 51.171875 16.015625 36.375 
Q 16.015625 21.625 22.71875 14.15625 
Q 29.4375 6.6875 42.828125 6.6875 
Q 48.046875 6.6875 52.140625 7.59375 
Q 56.25 8.5 59.515625 10.40625 
z
" id="DejaVuSans-71"/>
      <path d="M 56.203125 29.59375 
L 56.203125 25.203125 
L 14.890625 25.203125 
Q 15.484375 15.921875 20.484375 11.0625 
Q 25.484375 6.203125 34.421875 6.203125 
Q 39.59375 6.203125 44.453125 7.46875 
Q 49.3125 8.734375 54.109375 11.28125 
L 54.109375 2.78125 
Q 49.265625 0.734375 44.1875 -0.34375 
Q 39.109375 -1.421875 33.890625 -1.421875 
Q 20.796875 -1.421875 13.15625 6.1875 
Q 5.515625 13.8125 5.515625 26.8125 
Q 5.515625 40.234375 12.765625 48.109375 
Q 20.015625 56 32.328125 56 
Q 43.359375 56 49.78125 48.890625 
Q 56.203125 41.796875 56.203125 29.59375 
z
M 47.21875 32.234375 
Q 47.125 39.59375 43.09375 43.984375 
Q 39.0625 48.390625 32.421875 48.390625 
Q 24.90625 48.390625 20.390625 44.140625 
Q 15.875 39.890625 15.1875 32.171875 
z
" id="DejaVuSans-101"/>
      <path d="M 54.890625 33.015625 
L 54.890625 0 
L 45.90625 0 
L 45.90625 32.71875 
Q 45.90625 40.484375 42.875 44.328125 
Q 39.84375 48.1875 33.796875 48.1875 
Q 26.515625 48.1875 22.3125 43.546875 
Q 18.109375 38.921875 18.109375 30.90625 
L 18.109375 0 
L 9.078125 0 
L 9.078125 54.6875 
L 18.109375 54.6875 
L 18.109375 46.1875 
Q 21.34375 51.125 25.703125 53.5625 
Q 30.078125 56 35.796875 56 
Q 45.21875 56 50.046875 50.171875 
Q 54.890625 44.34375 54.890625 33.015625 
z
" id="DejaVuSans-110"/>
      <path d="M 41.109375 46.296875 
Q 39.59375 47.171875 37.8125 47.578125 
Q 36.03125 48 33.890625 48 
Q 26.265625 48 22.1875 43.046875 
Q 18.109375 38.09375 18.109375 28.8125 
L 18.109375 0 
L 9.078125 0 
L 9.078125 54.6875 
L 18.109375 54.6875 
L 18.109375 46.1875 
Q 20.953125 51.171875 25.484375 53.578125 
Q 30.03125 56 36.53125 56 
Q 37.453125 56 38.578125 55.875 
Q 39.703125 55.765625 41.0625 55.515625 
z
" id="DejaVuSans-114"/>
      <path d="M 34.28125 27.484375 
Q 23.390625 27.484375 19.1875 25 
Q 14.984375 22.515625 14.984375 16.5 
Q 14.984375 11.71875 18.140625 8.90625 
Q 21.296875 6.109375 26.703125 6.109375 
Q 34.1875 6.109375 38.703125 11.40625 
Q 43.21875 16.703125 43.21875 25.484375 
L 43.21875 27.484375 
z
M 52.203125 31.203125 
L 52.203125 0 
L 43.21875 0 
L 43.21875 8.296875 
Q 40.140625 3.328125 35.546875 0.953125 
Q 30.953125 -1.421875 24.3125 -1.421875 
Q 15.921875 -1.421875 10.953125 3.296875 
Q 6 8.015625 6 15.921875 
Q 6 25.140625 12.171875 29.828125 
Q 18.359375 34.515625 30.609375 34.515625 
L 43.21875 34.515625 
L 43.21875 35.40625 
Q 43.21875 41.609375 39.140625 45 
Q 35.0625 48.390625 27.6875 48.390625 
Q 23 48.390625 18.546875 47.265625 
Q 14.109375 46.140625 10.015625 43.890625 
L 10.015625 52.203125 
Q 14.9375 54.109375 19.578125 55.046875 
Q 24.21875 56 28.609375 56 
Q 40.484375 56 46.34375 49.84375 
Q 52.203125 43.703125 52.203125 31.203125 
z
" id="DejaVuSans-97"/>
      <path d="M 18.3125 70.21875 
L 18.3125 54.6875 
L 36.8125 54.6875 
L 36.8125 47.703125 
L 18.3125 47.703125 
L 18.3125 18.015625 
Q 18.3125 11.328125 20.140625 9.421875 
Q 21.96875 7.515625 27.59375 7.515625 
L 36.8125 7.515625 
L 36.8125 0 
L 27.59375 0 
Q 17.1875 0 13.234375 3.875 
Q 9.28125 7.765625 9.28125 18.015625 
L 9.28125 47.703125 
L 2.6875 47.703125 
L 2.6875 54.6875 
L 9.28125 54.6875 
L 9.28125 70.21875 
z
" id="DejaVuSans-116"/>
      <path d="M 9.421875 54.6875 
L 18.40625 54.6875 
L 18.40625 0 
L 9.421875 0 
z
M 9.421875 75.984375 
L 18.40625 75.984375 
L 18.40625 64.59375 
L 9.421875 64.59375 
z
" id="DejaVuSans-105"/>
      <path d="M 30.609375 48.390625 
Q 23.390625 48.390625 19.1875 42.75 
Q 14.984375 37.109375 14.984375 27.296875 
Q 14.984375 17.484375 19.15625 11.84375 
Q 23.34375 6.203125 30.609375 6.203125 
Q 37.796875 6.203125 41.984375 11.859375 
Q 46.1875 17.53125 46.1875 27.296875 
Q 46.1875 37.015625 41.984375 42.703125 
Q 37.796875 48.390625 30.609375 48.390625 
z
M 30.609375 56 
Q 42.328125 56 49.015625 48.375 
Q 55.71875 40.765625 55.71875 27.296875 
Q 55.71875 13.875 49.015625 6.21875 
Q 42.328125 -1.421875 30.609375 -1.421875 
Q 18.84375 -1.421875 12.171875 6.21875 
Q 5.515625 13.875 5.515625 27.296875 
Q 5.515625 40.765625 12.171875 48.375 
Q 18.84375 56 30.609375 56 
z
" id="DejaVuSans-111"/>
      <path id="DejaVuSans-32"/>
      <path d="M 9.8125 72.90625 
L 23.09375 72.90625 
L 55.421875 11.921875 
L 55.421875 72.90625 
L 64.984375 72.90625 
L 64.984375 0 
L 51.703125 0 
L 19.390625 60.984375 
L 19.390625 0 
L 9.8125 0 
z
" id="DejaVuSans-78"/>
      <path d="M 8.5 21.578125 
L 8.5 54.6875 
L 17.484375 54.6875 
L 17.484375 21.921875 
Q 17.484375 14.15625 20.5 10.265625 
Q 23.53125 6.390625 29.59375 6.390625 
Q 36.859375 6.390625 41.078125 11.03125 
Q 45.3125 15.671875 45.3125 23.6875 
L 45.3125 54.6875 
L 54.296875 54.6875 
L 54.296875 0 
L 45.3125 0 
L 45.3125 8.40625 
Q 42.046875 3.421875 37.71875 1 
Q 33.40625 -1.421875 27.6875 -1.421875 
Q 18.265625 -1.421875 13.375 4.4375 
Q 8.5 10.296875 8.5 21.578125 
z
M 31.109375 56 
z
" id="DejaVuSans-117"/>
      <path d="M 52 44.1875 
Q 55.375 50.25 60.0625 53.125 
Q 64.75 56 71.09375 56 
Q 79.640625 56 84.28125 50.015625 
Q 88.921875 44.046875 88.921875 33.015625 
L 88.921875 0 
L 79.890625 0 
L 79.890625 32.71875 
Q 79.890625 40.578125 77.09375 44.375 
Q 74.3125 48.1875 68.609375 48.1875 
Q 61.625 48.1875 57.5625 43.546875 
Q 53.515625 38.921875 53.515625 30.90625 
L 53.515625 0 
L 44.484375 0 
L 44.484375 32.71875 
Q 44.484375 40.625 41.703125 44.40625 
Q 38.921875 48.1875 33.109375 48.1875 
Q 26.21875 48.1875 22.15625 43.53125 
Q 18.109375 38.875 18.109375 30.90625 
L 18.109375 0 
L 9.078125 0 
L 9.078125 54.6875 
L 18.109375 54.6875 
L 18.109375 46.1875 
Q 21.1875 51.21875 25.484375 53.609375 
Q 29.78125 56 35.6875 56 
Q 41.65625 56 45.828125 52.96875 
Q 50 49.953125 52 44.1875 
z
" id="DejaVuSans-109"/>
      <path d="M 48.6875 27.296875 
Q 48.6875 37.203125 44.609375 42.84375 
Q 40.53125 48.484375 33.40625 48.484375 
Q 26.265625 48.484375 22.1875 42.84375 
Q 18.109375 37.203125 18.109375 27.296875 
Q 18.109375 17.390625 22.1875 11.75 
Q 26.265625 6.109375 33.40625 6.109375 
Q 40.53125 6.109375 44.609375 11.75 
Q 48.6875 17.390625 48.6875 27.296875 
z
M 18.109375 46.390625 
Q 20.953125 51.265625 25.265625 53.625 
Q 29.59375 56 35.59375 56 
Q 45.5625 56 51.78125 48.09375 
Q 58.015625 40.1875 58.015625 27.296875 
Q 58.015625 14.40625 51.78125 6.484375 
Q 45.5625 -1.421875 35.59375 -1.421875 
Q 29.59375 -1.421875 25.265625 0.953125 
Q 20.953125 3.328125 18.109375 8.203125 
L 18.109375 0 
L 9.078125 0 
L 9.078125 75.984375 
L 18.109375 75.984375 
z
" id="DejaVuSans-98"/>
     </defs>
     <g transform="translate(184.337344 316.706687)scale(0.1 -0.1)">
      <use xlink:href="#DejaVuSans-71"/>
      <use x="77.490234" xlink:href="#DejaVuSans-101"/>
      <use x="139.013672" xlink:href="#DejaVuSans-110"/>
      <use x="202.392578" xlink:href="#DejaVuSans-101"/>
      <use x="263.916016" xlink:href="#DejaVuSans-114"/>
      <use x="305.029297" xlink:href="#DejaVuSans-97"/>
      <use x="366.308594" xlink:href="#DejaVuSans-116"/>
      <use x="405.517578" xlink:href="#DejaVuSans-105"/>
      <use x="433.300781" xlink:href="#DejaVuSans-111"/>
      <use x="494.482422" xlink:href="#DejaVuSans-110"/>
      <use x="557.861328" xlink:href="#DejaVuSans-32"/>
      <use x="589.648438" xlink:href="#DejaVuSans-78"/>
      <use x="664.453125" xlink:href="#DejaVuSans-117"/>
      <use x="727.832031" xlink:href="#DejaVuSans-109"/>
      <use x="825.244141" xlink:href="#DejaVuSans-98"/>
      <use x="888.720703" xlink:href="#DejaVuSans-101"/>
      <use x="950.244141" xlink:href="#DejaVuSans-114"/>
     </g>
    </g>
   </g>
   <g id="matplotlib.axis_2">
    <g id="ytick_1">
     <g id="line2d_13">
      <path clip-path="url(#p58055d2c75)" d="M 55.345313 235.910892 
L 412.465312 235.910892 
" style="fill:none;stroke:#b0b0b0;stroke-linecap:square;stroke-width:0.8;"/>
     </g>
     <g id="line2d_14">
      <defs>
       <path d="M 0 0 
L -3.5 0 
" id="md8a6d02c1b" style="stroke:#000000;stroke-width:0.8;"/>
      </defs>
      <g>
       <use style="stroke:#000000;stroke-width:0.8;" x="55.345313" xlink:href="#md8a6d02c1b" y="235.910892"/>
      </g>
     </g>
     <g id="text_8">
      <!-- −500 -->
      <defs>
       <path d="M 10.59375 35.5 
L 73.1875 35.5 
L 73.1875 27.203125 
L 10.59375 27.203125 
z
" id="DejaVuSans-8722"/>
       <path d="M 10.796875 72.90625 
L 49.515625 72.90625 
L 49.515625 64.59375 
L 19.828125 64.59375 
L 19.828125 46.734375 
Q 21.96875 47.46875 24.109375 47.828125 
Q 26.265625 48.1875 28.421875 48.1875 
Q 40.625 48.1875 47.75 41.5 
Q 54.890625 34.8125 54.890625 23.390625 
Q 54.890625 11.625 47.5625 5.09375 
Q 40.234375 -1.421875 26.90625 -1.421875 
Q 22.3125 -1.421875 17.546875 -0.640625 
Q 12.796875 0.140625 7.71875 1.703125 
L 7.71875 11.625 
Q 12.109375 9.234375 16.796875 8.0625 
Q 21.484375 6.890625 26.703125 6.890625 
Q 35.15625 6.890625 40.078125 11.328125 
Q 45.015625 15.765625 45.015625 23.390625 
Q 45.015625 31 40.078125 35.4375 
Q 35.15625 39.890625 26.703125 39.890625 
Q 22.75 39.890625 18.8125 39.015625 
Q 14.890625 38.140625 10.796875 36.28125 
z
" id="DejaVuSans-53"/>
      </defs>
      <g transform="translate(20.878125 239.710111)scale(0.1 -0.1)">
       <use xlink:href="#DejaVuSans-8722"/>
       <use x="83.789062" xlink:href="#DejaVuSans-53"/>
       <use x="147.412109" xlink:href="#DejaVuSans-48"/>
       <use x="211.035156" xlink:href="#DejaVuSans-48"/>
      </g>
     </g>
    </g>
    <g id="ytick_2">
     <g id="line2d_15">
      <path clip-path="url(#p58055d2c75)" d="M 55.345313 176.797551 
L 412.465312 176.797551 
" style="fill:none;stroke:#b0b0b0;stroke-linecap:square;stroke-width:0.8;"/>
     </g>
     <g id="line2d_16">
      <g>
       <use style="stroke:#000000;stroke-width:0.8;" x="55.345313" xlink:href="#md8a6d02c1b" y="176.797551"/>
      </g>
     </g>
     <g id="text_9">
      <!-- 0 -->
      <g transform="translate(41.982813 180.59677)scale(0.1 -0.1)">
       <use xlink:href="#DejaVuSans-48"/>
      </g>
     </g>
    </g>
    <g id="ytick_3">
     <g id="line2d_17">
      <path clip-path="url(#p58055d2c75)" d="M 55.345313 117.68421 
L 412.465312 117.68421 
" style="fill:none;stroke:#b0b0b0;stroke-linecap:square;stroke-width:0.8;"/>
     </g>
     <g id="line2d_18">
      <g>
       <use style="stroke:#000000;stroke-width:0.8;" x="55.345313" xlink:href="#md8a6d02c1b" y="117.68421"/>
      </g>
     </g>
     <g id="text_10">
      <!-- 500 -->
      <g transform="translate(29.257813 121.483429)scale(0.1 -0.1)">
       <use xlink:href="#DejaVuSans-53"/>
       <use x="63.623047" xlink:href="#DejaVuSans-48"/>
       <use x="127.246094" xlink:href="#DejaVuSans-48"/>
      </g>
     </g>
    </g>
    <g id="ytick_4">
     <g id="line2d_19">
      <path clip-path="url(#p58055d2c75)" d="M 55.345313 58.570869 
L 412.465312 58.570869 
" style="fill:none;stroke:#b0b0b0;stroke-linecap:square;stroke-width:0.8;"/>
     </g>
     <g id="line2d_20">
      <g>
       <use style="stroke:#000000;stroke-width:0.8;" x="55.345313" xlink:href="#md8a6d02c1b" y="58.570869"/>
      </g>
     </g>
     <g id="text_11">
      <!-- 1000 -->
      <g transform="translate(22.895313 62.370088)scale(0.1 -0.1)">
       <use xlink:href="#DejaVuSans-49"/>
       <use x="63.623047" xlink:href="#DejaVuSans-48"/>
       <use x="127.246094" xlink:href="#DejaVuSans-48"/>
       <use x="190.869141" xlink:href="#DejaVuSans-48"/>
      </g>
     </g>
    </g>
    <g id="text_12">
     <!-- Value -->
     <defs>
      <path d="M 28.609375 0 
L 0.78125 72.90625 
L 11.078125 72.90625 
L 34.1875 11.53125 
L 57.328125 72.90625 
L 67.578125 72.90625 
L 39.796875 0 
z
" id="DejaVuSans-86"/>
      <path d="M 9.421875 75.984375 
L 18.40625 75.984375 
L 18.40625 0 
L 9.421875 0 
z
" id="DejaVuSans-108"/>
     </defs>
     <g transform="translate(14.798438 169.105375)rotate(-90)scale(0.1 -0.1)">
      <use xlink:href="#DejaVuSans-86"/>
      <use x="60.658203" xlink:href="#DejaVuSans-97"/>
      <use x="121.9375" xlink:href="#DejaVuSans-108"/>
      <use x="149.720703" xlink:href="#DejaVuSans-117"/>
      <use x="213.099609" xlink:href="#DejaVuSans-101"/>
     </g>
    </g>
   </g>
   <g id="line2d_21">
    <path clip-path="url(#p58055d2c75)" d="M 71.57804 34.414125 
L 71.903019 46.916349 
L 72.552978 57.010985 
L 75.152815 80.583308 
L 76.452733 88.860549 
L 76.777712 90.582913 
L 77.752651 96.915307 
L 80.027507 108.00944 
L 80.352487 110.258906 
L 80.677466 111.698841 
L 81.652405 120.032362 
L 83.927262 132.156353 
L 85.22718 137.330048 
L 85.877139 139.223019 
L 86.527098 141.69877 
L 86.852077 142.788103 
L 87.502036 145.643584 
L 87.827016 146.576771 
L 89.776893 154.898845 
L 91.076811 161.078933 
L 91.401791 163.125914 
L 92.701709 167.791025 
L 93.026688 168.254874 
L 94.001627 170.484292 
L 95.301545 174.713105 
L 95.951504 176.372252 
L 97.251422 178.257596 
L 97.901381 179.584451 
L 99.201299 181.545519 
L 100.501217 183.084022 
L 100.826197 183.984835 
L 101.476156 185.204105 
L 101.801136 186.277682 
L 102.776074 188.014576 
L 104.725951 190.669947 
L 105.050931 190.925346 
L 106.350849 193.041329 
L 106.675828 193.734539 
L 107.325788 194.533575 
L 107.975747 196.017228 
L 108.625706 196.673932 
L 109.925624 198.814732 
L 111.225542 201.179868 
L 111.875501 201.397516 
L 112.20048 201.723617 
L 113.175419 203.499049 
L 113.825378 205.408908 
L 115.125296 210.852277 
L 115.775255 211.695772 
L 116.750194 213.155565 
L 117.725132 215.136087 
L 118.050112 216.101505 
L 118.700071 216.791273 
L 119.02505 217.059292 
L 119.675009 217.893658 
L 120.324969 218.119519 
L 120.649948 218.380239 
L 121.624887 219.77811 
L 121.949866 220.41773 
L 122.924805 220.79764 
L 123.899743 221.190084 
L 124.224723 221.352064 
L 124.874682 221.937359 
L 125.84962 222.680048 
L 126.824559 223.794767 
L 127.149539 224.097463 
L 127.799498 225.120323 
L 128.124477 225.516856 
L 129.749375 225.812003 
L 131.049293 226.416565 
L 131.374272 226.741204 
L 132.024231 227.817888 
L 132.349211 227.970281 
L 133.32415 229.026446 
L 133.974109 229.658824 
L 134.299088 229.934125 
L 134.949047 230.756287 
L 135.274027 230.929294 
L 136.898924 231.025371 
L 137.873863 231.30207 
L 138.198842 231.535972 
L 138.848801 231.654278 
L 140.14872 231.836495 
L 140.473699 232.041276 
L 140.798679 232.378024 
L 142.423576 232.959006 
L 143.073535 233.476438 
L 143.398515 233.53675 
L 144.373453 234.074515 
L 144.698433 234.414325 
L 145.023412 235.152633 
L 145.673371 235.734597 
L 145.998351 236.353346 
L 146.323331 237.242046 
L 149.898105 238.952525 
L 150.548064 239.381241 
L 151.198023 239.749835 
L 151.847982 240.252916 
L 152.497941 240.608707 
L 153.147901 241.15018 
L 154.447819 243.199832 
L 154.772798 243.368947 
L 156.072716 243.43395 
L 158.672552 244.123715 
L 159.647491 244.986554 
L 159.972471 245.532513 
L 160.947409 246.098132 
L 161.272389 246.432221 
L 162.572307 246.613128 
L 163.872225 247.259405 
L 164.847163 247.299848 
L 166.472061 247.757039 
L 166.797041 248.03229 
L 169.396877 248.900166 
L 171.021774 249.777929 
L 171.671733 250.183693 
L 172.646672 250.312701 
L 173.621611 250.445947 
L 176.871406 250.54986 
L 177.846344 251.141538 
L 180.121201 251.251508 
L 182.071078 251.516033 
L 183.370996 251.894474 
L 184.670914 252.112786 
L 186.945771 252.173944 
L 188.570669 252.451258 
L 190.520546 252.615351 
L 191.495484 252.916502 
L 193.445362 252.984483 
L 194.4203 253.291914 
L 194.74528 253.608267 
L 195.395239 254.881985 
L 196.695157 255.129838 
L 198.645034 256.328928 
L 200.594911 256.724454 
L 201.24487 257.253524 
L 202.219809 257.492946 
L 203.194747 257.931215 
L 206.769522 258.038449 
L 208.719399 258.315001 
L 213.269113 258.42586 
L 215.21899 258.539562 
L 217.818826 258.684292 
L 218.793765 258.822046 
L 221.393601 258.8802 
L 222.04356 259.114736 
L 222.368539 259.308068 
L 223.343478 259.410725 
L 223.668457 259.534783 
L 223.993437 259.840954 
L 224.318417 260.370321 
L 224.643396 260.54009 
L 230.168048 260.648479 
L 230.818007 260.774554 
L 231.142987 260.973577 
L 231.467966 261.324883 
L 232.117925 262.45061 
L 233.092864 262.694204 
L 233.417843 262.877629 
L 233.742823 263.19862 
L 234.392782 263.439564 
L 236.342659 263.507787 
L 236.992618 263.588814 
L 238.292536 263.687163 
L 239.267475 263.775885 
L 243.817188 263.867424 
L 244.142168 263.974141 
L 244.467147 264.214267 
L 244.792127 264.856195 
L 245.117106 265.083582 
L 248.041922 265.178266 
L 253.241594 265.580161 
L 259.416205 265.664013 
L 260.716123 265.854329 
L 261.041103 266.026088 
L 263.31596 266.126505 
L 265.590816 266.221675 
L 267.215714 266.468533 
L 269.165591 266.538818 
L 272.740366 267.184518 
L 280.214895 267.278081 
L 280.864854 267.483847 
L 285.414567 267.544422 
L 287.364444 267.81436 
L 288.014403 267.942633 
L 288.339383 268.103891 
L 289.639301 268.203184 
L 289.964281 268.368355 
L 290.61424 269.337009 
L 301.988523 269.380113 
L 303.288441 269.590558 
L 306.213257 269.691152 
L 306.538236 269.789229 
L 307.188195 270.301577 
L 329.611783 270.611007 
L 329.936762 270.705348 
L 330.261742 270.98463 
L 330.586721 271.435359 
L 332.861578 271.726511 
L 333.836516 271.946605 
L 334.811455 272.10021 
L 335.786394 272.583398 
L 336.436353 272.656092 
L 339.036189 272.741696 
L 339.686148 272.827301 
L 345.860759 272.929864 
L 348.135616 273.436256 
L 365.68451 273.530866 
L 366.334469 273.618206 
L 366.984428 273.908014 
L 369.259285 273.963679 
L 370.234223 274.050743 
L 374.783937 274.112498 
L 375.108916 274.199 
L 375.758875 274.655921 
L 384.208343 274.782738 
L 386.483199 274.934668 
L 393.30777 275.001954 
L 395.582626 275.760255 
L 396.232585 275.845474 
L 396.232585 275.845474 
" style="fill:none;stroke:#0000ff;stroke-linecap:square;stroke-width:2;"/>
   </g>
   <g id="line2d_22">
    <path clip-path="url(#p58055d2c75)" d="M 71.57804 34.414125 
L 71.903019 46.916349 
L 72.552978 57.010985 
L 75.152815 80.583308 
L 76.452733 88.860549 
L 76.777712 90.582913 
L 77.752651 96.915307 
L 80.027507 108.00944 
L 80.352487 110.258906 
L 80.677466 111.698841 
L 81.652405 120.032362 
L 83.927262 132.156353 
L 85.22718 137.330048 
L 85.877139 139.223019 
L 86.527098 141.69877 
L 86.852077 142.788103 
L 87.502036 145.643584 
L 87.827016 146.576771 
L 89.776893 154.898845 
L 91.076811 161.078933 
L 91.401791 163.125914 
L 92.701709 167.791025 
L 93.026688 168.254874 
L 94.001627 170.484292 
L 95.301545 174.713105 
L 95.951504 176.372252 
L 97.251422 178.257596 
L 97.901381 179.584451 
L 99.201299 181.545519 
L 100.501217 183.084022 
L 100.826197 183.984835 
L 101.476156 185.204105 
L 101.801136 186.277682 
L 102.776074 188.014576 
L 104.725951 190.669947 
L 105.050931 190.925346 
L 106.350849 193.041329 
L 106.675828 193.734539 
L 107.325788 194.533575 
L 107.975747 196.017228 
L 108.625706 196.673932 
L 109.925624 198.814732 
L 111.225542 201.179868 
L 111.875501 201.397516 
L 112.20048 201.723617 
L 113.175419 203.499049 
L 113.825378 205.408908 
L 115.125296 210.852277 
L 115.775255 211.695772 
L 116.750194 213.155565 
L 117.725132 215.136087 
L 118.050112 216.101505 
L 118.700071 216.791273 
L 119.02505 217.059292 
L 119.675009 217.893658 
L 120.324969 218.119519 
L 120.649948 218.380239 
L 121.624887 219.77811 
L 121.949866 220.41773 
L 122.924805 220.79764 
L 123.899743 221.190084 
L 124.224723 221.352064 
L 124.874682 221.937359 
L 125.84962 222.680048 
L 126.824559 223.794767 
L 127.149539 224.097463 
L 127.799498 225.120323 
L 128.124477 225.516856 
L 129.749375 225.812003 
L 131.049293 226.416565 
L 131.374272 226.741204 
L 132.024231 227.817888 
L 132.349211 227.970281 
L 133.32415 229.026446 
L 133.974109 229.658824 
L 134.299088 229.934125 
L 134.949047 230.756287 
L 135.274027 230.929294 
L 136.898924 231.025371 
L 137.873863 231.30207 
L 138.198842 231.535972 
L 138.848801 231.654278 
L 140.14872 231.836495 
L 140.473699 232.041276 
L 140.798679 232.378024 
L 142.423576 232.959006 
L 143.073535 233.476438 
L 143.398515 233.53675 
L 144.373453 234.074515 
L 144.698433 234.414325 
L 145.023412 235.152633 
L 145.673371 235.734597 
L 145.998351 236.353346 
L 146.323331 237.242046 
L 149.898105 238.952525 
L 150.548064 239.381241 
L 151.198023 239.749835 
L 151.847982 240.252916 
L 152.497941 240.608707 
L 153.147901 241.15018 
L 154.447819 243.199832 
L 154.772798 243.368947 
L 156.072716 243.43395 
L 158.672552 244.123715 
L 159.647491 244.986554 
L 159.972471 245.532513 
L 160.947409 246.098132 
L 161.272389 246.432221 
L 162.572307 246.613128 
L 163.872225 247.259405 
L 164.847163 247.299848 
L 166.472061 247.757039 
L 166.797041 248.03229 
L 169.396877 248.900166 
L 171.021774 249.777929 
L 171.671733 250.183693 
L 172.646672 250.312701 
L 173.621611 250.445947 
L 176.871406 250.54986 
L 177.846344 251.141538 
L 180.121201 251.251508 
L 182.071078 251.516033 
L 183.370996 251.894474 
L 184.670914 252.112786 
L 186.945771 252.173944 
L 188.570669 252.451258 
L 190.520546 252.615351 
L 191.495484 252.916502 
L 193.445362 252.984483 
L 194.4203 253.291914 
L 194.74528 253.608267 
L 195.395239 254.881985 
L 196.695157 255.129838 
L 198.645034 256.328928 
L 200.594911 256.724454 
L 201.24487 257.253524 
L 202.219809 257.492946 
L 203.194747 257.931215 
L 206.769522 258.038449 
L 208.719399 258.315001 
L 213.269113 258.42586 
L 215.21899 258.539562 
L 217.818826 258.684292 
L 218.793765 258.822046 
L 221.393601 258.8802 
L 222.04356 259.114736 
L 222.368539 259.308068 
L 223.343478 259.410725 
L 223.668457 259.534783 
L 223.993437 259.840954 
L 224.318417 260.370321 
L 224.643396 260.54009 
L 230.168048 260.648479 
L 230.818007 260.774554 
L 231.142987 260.973577 
L 231.467966 261.324883 
L 232.117925 262.45061 
L 233.092864 262.694204 
L 233.417843 262.877629 
L 233.742823 263.19862 
L 234.392782 263.439564 
L 236.342659 263.507787 
L 236.992618 263.588814 
L 238.292536 263.687163 
L 239.267475 263.775885 
L 243.817188 263.867424 
L 244.142168 263.974141 
L 244.467147 264.214267 
L 244.792127 264.856195 
L 245.117106 265.083582 
L 248.041922 265.178266 
L 253.241594 265.580161 
L 259.416205 265.664013 
L 260.716123 265.854329 
L 261.041103 266.026088 
L 263.31596 266.126505 
L 265.590816 266.221675 
L 267.215714 266.468533 
L 269.165591 266.538818 
L 272.740366 267.184518 
L 280.214895 267.278081 
L 280.864854 267.483847 
L 285.414567 267.544422 
L 287.364444 267.81436 
L 288.014403 267.942633 
L 288.339383 268.103891 
L 289.639301 268.203184 
L 289.964281 268.368355 
L 290.61424 269.337009 
L 301.988523 269.380113 
L 303.288441 269.590558 
L 306.213257 269.691152 
L 306.538236 269.789229 
L 307.188195 270.301577 
L 329.611783 270.611007 
L 329.936762 270.705348 
L 330.261742 270.98463 
L 330.586721 271.435359 
L 332.861578 271.726511 
L 333.836516 271.946605 
L 334.811455 272.10021 
L 335.786394 272.583398 
L 336.436353 272.656092 
L 339.036189 272.741696 
L 339.686148 272.827301 
L 345.860759 272.929864 
L 348.135616 273.436256 
L 365.68451 273.530866 
L 366.334469 273.618206 
L 366.984428 273.908014 
L 369.259285 273.963679 
L 370.234223 274.050743 
L 374.783937 274.112498 
L 375.108916 274.199 
L 375.758875 274.655921 
L 384.208343 274.782738 
L 386.483199 274.934668 
L 393.30777 275.001954 
L 395.582626 275.760255 
L 396.232585 275.845474 
L 396.232585 275.845474 
" style="fill:none;stroke:#0000ff;stroke-linecap:square;stroke-width:2;"/>
   </g>
   <g id="line2d_23">
    <path clip-path="url(#p58055d2c75)" d="M 71.57804 59.824989 
L 71.903019 75.534713 
L 72.552978 75.534713 
L 72.877958 79.886901 
L 73.202937 79.886901 
L 73.527917 85.29089 
L 74.177876 85.29089 
L 74.827835 86.450587 
L 75.152815 88.227936 
L 75.802774 94.171339 
L 76.127753 94.382029 
L 76.452733 100.305898 
L 76.777712 102.934006 
L 77.102692 107.409177 
L 78.07763 107.409177 
L 78.40261 108.445667 
L 78.727589 108.780585 
L 79.052569 113.888528 
L 79.377548 113.888528 
L 79.702528 116.471068 
L 80.027507 121.065611 
L 80.352487 123.835156 
L 80.677466 123.835156 
L 81.002446 126.168364 
L 81.327426 126.168364 
L 81.652405 127.615257 
L 81.977385 127.615257 
L 82.302364 130.677808 
L 82.627344 132.623135 
L 82.952323 135.999196 
L 83.602282 136.109963 
L 84.252241 139.860661 
L 84.577221 139.942277 
L 85.22718 143.922575 
L 85.552159 143.922575 
L 86.202118 145.832559 
L 86.527098 145.832559 
L 86.852077 146.403953 
L 87.177057 150.928383 
L 87.502036 150.928383 
L 87.827016 152.540079 
L 88.151996 157.286903 
L 89.126934 157.333128 
L 89.451914 161.872114 
L 89.776893 161.872114 
L 90.101873 162.675774 
L 90.426852 166.833245 
L 91.076811 166.833245 
L 91.401791 167.636905 
L 91.72677 169.022573 
L 92.376729 172.872254 
L 93.351668 172.872254 
L 93.676647 174.026604 
L 94.001627 174.295434 
L 94.326607 176.062531 
L 94.651586 176.119285 
L 94.976566 176.908692 
L 95.301545 176.908692 
L 95.626525 177.789466 
L 95.951504 179.337005 
L 96.601463 179.337005 
L 96.926443 180.343126 
L 97.251422 180.343126 
L 97.576402 181.913822 
L 98.226361 181.913822 
L 98.55134 182.902473 
L 98.87632 182.902473 
L 99.201299 184.001937 
L 99.526279 184.001937 
L 99.851258 186.814388 
L 100.176238 186.814388 
L 100.501217 187.996214 
L 101.476156 188.062482 
L 101.801136 188.620759 
L 102.126115 188.620759 
L 102.776074 190.358729 
L 103.751013 190.692809 
L 104.075992 192.56508 
L 104.725951 192.56508 
L 105.050931 193.295025 
L 105.37591 193.732303 
L 105.70089 193.980723 
L 106.025869 194.790168 
L 106.350849 196.03295 
L 106.675828 196.03295 
L 107.000808 196.189958 
L 107.325788 196.189958 
L 107.650767 199.177865 
L 108.625706 199.177865 
L 108.950685 201.134837 
L 110.250603 201.134837 
L 110.575583 201.917846 
L 110.900562 201.917846 
L 111.550521 202.903649 
L 111.875501 202.903649 
L 112.20048 204.803748 
L 112.52546 210.139821 
L 113.500398 210.139821 
L 113.825378 211.045753 
L 114.475337 211.130726 
L 114.800317 212.566076 
L 115.125296 213.101704 
L 115.450276 213.101704 
L 116.100235 213.442075 
L 116.425214 214.535443 
L 116.750194 216.545461 
L 117.400153 216.545461 
L 118.050112 217.875393 
L 118.375091 217.875393 
L 118.700071 218.375232 
L 119.675009 218.375232 
L 119.999989 220.436904 
L 120.649948 220.436904 
L 120.974928 220.728121 
L 121.299907 220.737219 
L 121.624887 221.084965 
L 122.924805 221.084965 
L 123.249784 221.800929 
L 123.899743 222.552324 
L 124.224723 222.552324 
L 124.549702 223.503832 
L 125.524641 223.503832 
L 125.84962 223.679246 
L 126.1746 225.547441 
L 128.124477 225.547441 
L 128.449457 225.8681 
L 129.099416 225.8681 
L 129.424395 226.088656 
L 129.749375 226.088656 
L 130.074354 227.680115 
L 130.724313 227.702925 
L 131.049293 228.39973 
L 131.374272 228.672726 
L 131.699252 228.672726 
L 132.024231 229.369531 
L 132.349211 229.369531 
L 132.99917 230.928002 
L 135.274027 230.992596 
L 135.599006 231.614046 
L 138.848801 231.724717 
L 139.173781 232.446004 
L 140.14872 232.446004 
L 140.473699 233.376084 
L 141.773617 233.453113 
L 142.423576 233.495766 
L 142.748556 233.647772 
L 143.073535 235.276583 
L 143.398515 235.276583 
L 143.723494 236.300812 
L 144.373453 236.300812 
L 144.698433 237.308625 
L 145.673371 237.308625 
L 146.323331 237.87156 
L 146.64831 239.396169 
L 149.573126 239.421759 
L 150.223085 239.89476 
L 150.548064 240.35406 
L 151.198023 240.35406 
L 151.523003 240.746581 
L 151.847982 241.434273 
L 152.172962 241.434273 
L 152.497941 242.922474 
L 152.822921 243.712373 
L 156.072716 243.712373 
L 156.722675 244.084124 
L 157.372634 244.084124 
L 157.697614 245.616224 
L 158.997532 245.616224 
L 159.322512 246.126554 
L 159.647491 246.126554 
L 160.29745 246.648413 
L 160.62243 246.648413 
L 160.947409 247.043145 
L 161.597368 247.043145 
L 161.922348 247.25232 
L 162.247327 247.25232 
L 162.572307 247.555536 
L 164.847163 247.555536 
L 165.172143 248.076599 
L 166.147082 248.076599 
L 166.797041 248.581643 
L 167.12202 248.581643 
L 167.447 250.168534 
L 170.371815 250.168534 
L 171.021774 250.366709 
L 175.571488 250.45354 
L 175.896467 251.141538 
L 177.846344 251.141538 
L 178.171324 251.283138 
L 179.471242 251.286829 
L 179.796222 251.428169 
L 180.446181 251.428169 
L 180.77116 251.561715 
L 181.09614 251.837866 
L 182.396058 251.837866 
L 182.721037 252.112752 
L 185.320874 252.116125 
L 185.645853 252.363545 
L 187.92071 252.442766 
L 188.245689 252.860727 
L 190.520546 252.917047 
L 190.845525 254.914892 
L 195.070259 254.914892 
L 195.720218 256.346555 
L 197.670095 256.346555 
L 198.320055 257.204824 
L 198.970014 257.303459 
L 200.919891 257.364679 
L 201.24487 257.927338 
L 202.544788 257.927338 
L 202.869768 258.315001 
L 211.644215 258.425672 
L 212.294174 258.531241 
L 215.543969 258.594993 
L 216.193928 258.708848 
L 216.518908 258.708848 
L 217.168867 258.822046 
L 220.093683 258.822046 
L 220.418662 259.294953 
L 222.04356 259.294953 
L 222.368539 260.539608 
L 229.843068 260.616116 
L 230.168048 262.47504 
L 231.467966 262.47504 
L 231.792946 263.276986 
L 232.767884 263.276986 
L 233.092864 263.438145 
L 234.067802 263.438145 
L 234.392782 263.580001 
L 236.017679 263.633919 
L 236.342659 263.775885 
L 242.842249 263.775885 
L 243.167229 265.083582 
L 245.442086 265.152834 
L 245.767065 265.552183 
L 256.491389 265.619631 
L 256.816369 265.769181 
L 258.116287 265.769181 
L 258.441267 266.052186 
L 262.99098 266.12305 
L 263.31596 266.468533 
L 267.540693 266.468533 
L 268.190652 266.937134 
L 270.465509 266.937134 
L 270.790489 267.184518 
L 278.589997 267.184518 
L 278.914977 267.483847 
L 284.114649 267.483847 
L 284.439629 268.103891 
L 288.664362 268.103891 
L 288.989342 269.337009 
L 300.688605 269.337009 
L 301.013584 269.590558 
L 305.238318 269.590558 
L 305.563298 270.300442 
L 306.538236 270.300442 
L 307.188195 270.413969 
L 327.986885 270.524962 
L 328.311865 271.467527 
L 330.586721 271.467527 
L 331.886639 271.924661 
L 332.536598 271.924661 
L 332.861578 272.198958 
L 333.836516 272.198958 
L 334.161496 272.656092 
L 337.086312 272.656092 
L 337.411291 272.827301 
L 343.910882 272.872059 
L 344.235861 273.067732 
L 344.560841 273.067732 
L 344.88582 273.205246 
L 345.860759 273.205246 
L 346.185738 273.436256 
L 364.384592 273.511016 
L 364.709571 273.908014 
L 367.309408 273.908014 
L 367.634387 274.050743 
L 373.808998 274.050743 
L 374.133978 274.655921 
L 380.633568 274.75358 
L 380.958548 274.934668 
L 392.332831 274.934668 
L 392.98279 275.7252 
L 393.632749 275.7252 
L 394.282708 275.83974 
L 395.257647 275.83974 
L 395.582626 276.246722 
L 396.232585 276.334125 
L 396.232585 276.334125 
" style="fill:none;stroke:#ffa500;stroke-linecap:square;stroke-width:2;"/>
   </g>
   <g id="line2d_24">
    <path clip-path="url(#p58055d2c75)" d="M 71.57804 59.824989 
L 71.903019 75.534713 
L 72.552978 75.534713 
L 72.877958 79.886901 
L 73.202937 79.886901 
L 73.527917 85.29089 
L 74.177876 85.29089 
L 74.827835 86.450587 
L 75.152815 88.227936 
L 75.802774 94.171339 
L 76.127753 94.382029 
L 76.452733 100.305898 
L 76.777712 102.934006 
L 77.102692 107.409177 
L 78.07763 107.409177 
L 78.40261 108.445667 
L 78.727589 108.780585 
L 79.052569 113.888528 
L 79.377548 113.888528 
L 79.702528 116.471068 
L 80.027507 121.065611 
L 80.352487 123.835156 
L 80.677466 123.835156 
L 81.002446 126.168364 
L 81.327426 126.168364 
L 81.652405 127.615257 
L 81.977385 127.615257 
L 82.302364 130.677808 
L 82.627344 132.623135 
L 82.952323 135.999196 
L 83.602282 136.109963 
L 84.252241 139.860661 
L 84.577221 139.942277 
L 85.22718 143.922575 
L 85.552159 143.922575 
L 86.202118 145.832559 
L 86.527098 145.832559 
L 86.852077 146.403953 
L 87.177057 150.928383 
L 87.502036 150.928383 
L 87.827016 152.540079 
L 88.151996 157.286903 
L 89.126934 157.333128 
L 89.451914 161.872114 
L 89.776893 161.872114 
L 90.101873 162.675774 
L 90.426852 166.833245 
L 91.076811 166.833245 
L 91.401791 167.636905 
L 91.72677 169.022573 
L 92.376729 172.872254 
L 93.351668 172.872254 
L 93.676647 174.026604 
L 94.001627 174.295434 
L 94.326607 176.062531 
L 94.651586 176.119285 
L 94.976566 176.908692 
L 95.301545 176.908692 
L 95.626525 177.789466 
L 95.951504 179.337005 
L 96.601463 179.337005 
L 96.926443 180.343126 
L 97.251422 180.343126 
L 97.576402 181.913822 
L 98.226361 181.913822 
L 98.55134 182.902473 
L 98.87632 182.902473 
L 99.201299 184.001937 
L 99.526279 184.001937 
L 99.851258 186.814388 
L 100.176238 186.814388 
L 100.501217 187.996214 
L 101.476156 188.062482 
L 101.801136 188.620759 
L 102.126115 188.620759 
L 102.776074 190.358729 
L 103.751013 190.692809 
L 104.075992 192.56508 
L 104.725951 192.56508 
L 105.050931 193.295025 
L 105.37591 193.732303 
L 105.70089 193.980723 
L 106.025869 194.790168 
L 106.350849 196.03295 
L 106.675828 196.03295 
L 107.000808 196.189958 
L 107.325788 196.189958 
L 107.650767 199.177865 
L 108.625706 199.177865 
L 108.950685 201.134837 
L 110.250603 201.134837 
L 110.575583 201.917846 
L 110.900562 201.917846 
L 111.550521 202.903649 
L 111.875501 202.903649 
L 112.20048 204.803748 
L 112.52546 210.139821 
L 113.500398 210.139821 
L 113.825378 211.045753 
L 114.475337 211.130726 
L 114.800317 212.566076 
L 115.125296 213.101704 
L 115.450276 213.101704 
L 116.100235 213.442075 
L 116.425214 214.535443 
L 116.750194 216.545461 
L 117.400153 216.545461 
L 118.050112 217.875393 
L 118.375091 217.875393 
L 118.700071 218.375232 
L 119.675009 218.375232 
L 119.999989 220.436904 
L 120.649948 220.436904 
L 120.974928 220.728121 
L 121.299907 220.737219 
L 121.624887 221.084965 
L 122.924805 221.084965 
L 123.249784 221.800929 
L 123.899743 222.552324 
L 124.224723 222.552324 
L 124.549702 223.503832 
L 125.524641 223.503832 
L 125.84962 223.679246 
L 126.1746 225.547441 
L 128.124477 225.547441 
L 128.449457 225.8681 
L 129.099416 225.8681 
L 129.424395 226.088656 
L 129.749375 226.088656 
L 130.074354 227.680115 
L 130.724313 227.702925 
L 131.049293 228.39973 
L 131.374272 228.672726 
L 131.699252 228.672726 
L 132.024231 229.369531 
L 132.349211 229.369531 
L 132.99917 230.928002 
L 135.274027 230.992596 
L 135.599006 231.614046 
L 138.848801 231.724717 
L 139.173781 232.446004 
L 140.14872 232.446004 
L 140.473699 233.376084 
L 141.773617 233.453113 
L 142.423576 233.495766 
L 142.748556 233.647772 
L 143.073535 235.276583 
L 143.398515 235.276583 
L 143.723494 236.300812 
L 144.373453 236.300812 
L 144.698433 237.308625 
L 145.673371 237.308625 
L 146.323331 237.87156 
L 146.64831 239.396169 
L 149.573126 239.421759 
L 150.223085 239.89476 
L 150.548064 240.35406 
L 151.198023 240.35406 
L 151.523003 240.746581 
L 151.847982 241.434273 
L 152.172962 241.434273 
L 152.497941 242.922474 
L 152.822921 243.712373 
L 156.072716 243.712373 
L 156.722675 244.084124 
L 157.372634 244.084124 
L 157.697614 245.616224 
L 158.997532 245.616224 
L 159.322512 246.126554 
L 159.647491 246.126554 
L 160.29745 246.648413 
L 160.62243 246.648413 
L 160.947409 247.043145 
L 161.597368 247.043145 
L 161.922348 247.25232 
L 162.247327 247.25232 
L 162.572307 247.555536 
L 164.847163 247.555536 
L 165.172143 248.076599 
L 166.147082 248.076599 
L 166.797041 248.581643 
L 167.12202 248.581643 
L 167.447 250.168534 
L 170.371815 250.168534 
L 171.021774 250.366709 
L 175.571488 250.45354 
L 175.896467 251.141538 
L 177.846344 251.141538 
L 178.171324 251.283138 
L 179.471242 251.286829 
L 179.796222 251.428169 
L 180.446181 251.428169 
L 180.77116 251.561715 
L 181.09614 251.837866 
L 182.396058 251.837866 
L 182.721037 252.112752 
L 185.320874 252.116125 
L 185.645853 252.363545 
L 187.92071 252.442766 
L 188.245689 252.860727 
L 190.520546 252.917047 
L 190.845525 254.914892 
L 195.070259 254.914892 
L 195.720218 256.346555 
L 197.670095 256.346555 
L 198.320055 257.204824 
L 198.970014 257.303459 
L 200.919891 257.364679 
L 201.24487 257.927338 
L 202.544788 257.927338 
L 202.869768 258.315001 
L 211.644215 258.425672 
L 212.294174 258.531241 
L 215.543969 258.594993 
L 216.193928 258.708848 
L 216.518908 258.708848 
L 217.168867 258.822046 
L 220.093683 258.822046 
L 220.418662 259.294953 
L 222.04356 259.294953 
L 222.368539 260.539608 
L 229.843068 260.616116 
L 230.168048 262.47504 
L 231.467966 262.47504 
L 231.792946 263.276986 
L 232.767884 263.276986 
L 233.092864 263.438145 
L 234.067802 263.438145 
L 234.392782 263.580001 
L 236.017679 263.633919 
L 236.342659 263.775885 
L 242.842249 263.775885 
L 243.167229 265.083582 
L 245.442086 265.152834 
L 245.767065 265.552183 
L 256.491389 265.619631 
L 256.816369 265.769181 
L 258.116287 265.769181 
L 258.441267 266.052186 
L 262.99098 266.12305 
L 263.31596 266.468533 
L 267.540693 266.468533 
L 268.190652 266.937134 
L 270.465509 266.937134 
L 270.790489 267.184518 
L 278.589997 267.184518 
L 278.914977 267.483847 
L 284.114649 267.483847 
L 284.439629 268.103891 
L 288.664362 268.103891 
L 288.989342 269.337009 
L 300.688605 269.337009 
L 301.013584 269.590558 
L 305.238318 269.590558 
L 305.563298 270.300442 
L 306.538236 270.300442 
L 307.188195 270.413969 
L 327.986885 270.524962 
L 328.311865 271.467527 
L 330.586721 271.467527 
L 331.886639 271.924661 
L 332.536598 271.924661 
L 332.861578 272.198958 
L 333.836516 272.198958 
L 334.161496 272.656092 
L 337.086312 272.656092 
L 337.411291 272.827301 
L 343.910882 272.872059 
L 344.235861 273.067732 
L 344.560841 273.067732 
L 344.88582 273.205246 
L 345.860759 273.205246 
L 346.185738 273.436256 
L 364.384592 273.511016 
L 364.709571 273.908014 
L 367.309408 273.908014 
L 367.634387 274.050743 
L 373.808998 274.050743 
L 374.133978 274.655921 
L 380.633568 274.75358 
L 380.958548 274.934668 
L 392.332831 274.934668 
L 392.98279 275.7252 
L 393.632749 275.7252 
L 394.282708 275.83974 
L 395.257647 275.83974 
L 395.582626 276.246722 
L 396.232585 276.334125 
L 396.232585 276.334125 
" style="fill:none;stroke:#ffa500;stroke-linecap:square;stroke-width:2;"/>
   </g>
   <g id="patch_3">
    <path d="M 55.345313 288.430125 
L 55.345313 22.318125 
" style="fill:none;stroke:#000000;stroke-linecap:square;stroke-linejoin:miter;stroke-width:0.8;"/>
   </g>
   <g id="patch_4">
    <path d="M 412.465312 288.430125 
L 412.465312 22.318125 
" style="fill:none;stroke:#000000;stroke-linecap:square;stroke-linejoin:miter;stroke-width:0.8;"/>
   </g>
   <g id="patch_5">
    <path d="M 55.345313 288.430125 
L 412.465312 288.430125 
" style="fill:none;stroke:#000000;stroke-linecap:square;stroke-linejoin:miter;stroke-width:0.8;"/>
   </g>
   <g id="patch_6">
    <path d="M 55.345313 22.318125 
L 412.465312 22.318125 
" style="fill:none;stroke:#000000;stroke-linecap:square;stroke-linejoin:miter;stroke-width:0.8;"/>
   </g>
   <g id="text_13">
    <!-- Trace Plot -->
    <defs>
     <path d="M -0.296875 72.90625 
L 61.375 72.90625 
L 61.375 64.59375 
L 35.5 64.59375 
L 35.5 0 
L 25.59375 0 
L 25.59375 64.59375 
L -0.296875 64.59375 
z
" id="DejaVuSans-84"/>
     <path d="M 48.78125 52.59375 
L 48.78125 44.1875 
Q 44.96875 46.296875 41.140625 47.34375 
Q 37.3125 48.390625 33.40625 48.390625 
Q 24.65625 48.390625 19.8125 42.84375 
Q 14.984375 37.3125 14.984375 27.296875 
Q 14.984375 17.28125 19.8125 11.734375 
Q 24.65625 6.203125 33.40625 6.203125 
Q 37.3125 6.203125 41.140625 7.25 
Q 44.96875 8.296875 48.78125 10.40625 
L 48.78125 2.09375 
Q 45.015625 0.34375 40.984375 -0.53125 
Q 36.96875 -1.421875 32.421875 -1.421875 
Q 20.0625 -1.421875 12.78125 6.34375 
Q 5.515625 14.109375 5.515625 27.296875 
Q 5.515625 40.671875 12.859375 48.328125 
Q 20.21875 56 33.015625 56 
Q 37.15625 56 41.109375 55.140625 
Q 45.0625 54.296875 48.78125 52.59375 
z
" id="DejaVuSans-99"/>
     <path d="M 19.671875 64.796875 
L 19.671875 37.40625 
L 32.078125 37.40625 
Q 38.96875 37.40625 42.71875 40.96875 
Q 46.484375 44.53125 46.484375 51.125 
Q 46.484375 57.671875 42.71875 61.234375 
Q 38.96875 64.796875 32.078125 64.796875 
z
M 9.8125 72.90625 
L 32.078125 72.90625 
Q 44.34375 72.90625 50.609375 67.359375 
Q 56.890625 61.8125 56.890625 51.125 
Q 56.890625 40.328125 50.609375 34.8125 
Q 44.34375 29.296875 32.078125 29.296875 
L 19.671875 29.296875 
L 19.671875 0 
L 9.8125 0 
z
" id="DejaVuSans-80"/>
    </defs>
    <g transform="translate(204.77625 16.318125)scale(0.12 -0.12)">
     <use xlink:href="#DejaVuSans-84"/>
     <use x="46.333984" xlink:href="#DejaVuSans-114"/>
     <use x="87.447266" xlink:href="#DejaVuSans-97"/>
     <use x="148.726562" xlink:href="#DejaVuSans-99"/>
     <use x="203.707031" xlink:href="#DejaVuSans-101"/>
     <use x="265.230469" xlink:href="#DejaVuSans-32"/>
     <use x="297.017578" xlink:href="#DejaVuSans-80"/>
     <use x="357.320312" xlink:href="#DejaVuSans-108"/>
     <use x="385.103516" xlink:href="#DejaVuSans-111"/>
     <use x="446.285156" xlink:href="#DejaVuSans-116"/>
    </g>
   </g>
   <g id="legend_1">
    <g id="patch_7">
     <path d="M 251.160625 59.674375 
L 405.465312 59.674375 
Q 407.465312 59.674375 407.465312 57.674375 
L 407.465312 29.318125 
Q 407.465312 27.318125 405.465312 27.318125 
L 251.160625 27.318125 
Q 249.160625 27.318125 249.160625 29.318125 
L 249.160625 57.674375 
Q 249.160625 59.674375 251.160625 59.674375 
z
" style="fill:#ffffff;opacity:0.8;stroke:#cccccc;stroke-linejoin:miter;"/>
    </g>
    <g id="line2d_25">
     <path d="M 253.160625 35.416562 
L 273.160625 35.416562 
" style="fill:none;stroke:#0000ff;stroke-linecap:square;stroke-width:2;"/>
    </g>
    <g id="line2d_26"/>
    <g id="text_14">
     <!-- Average Objective Value -->
     <defs>
      <path d="M 34.1875 63.1875 
L 20.796875 26.90625 
L 47.609375 26.90625 
z
M 28.609375 72.90625 
L 39.796875 72.90625 
L 67.578125 0 
L 57.328125 0 
L 50.6875 18.703125 
L 17.828125 18.703125 
L 11.1875 0 
L 0.78125 0 
z
" id="DejaVuSans-65"/>
      <path d="M 2.984375 54.6875 
L 12.5 54.6875 
L 29.59375 8.796875 
L 46.6875 54.6875 
L 56.203125 54.6875 
L 35.6875 0 
L 23.484375 0 
z
" id="DejaVuSans-118"/>
      <path d="M 45.40625 27.984375 
Q 45.40625 37.75 41.375 43.109375 
Q 37.359375 48.484375 30.078125 48.484375 
Q 22.859375 48.484375 18.828125 43.109375 
Q 14.796875 37.75 14.796875 27.984375 
Q 14.796875 18.265625 18.828125 12.890625 
Q 22.859375 7.515625 30.078125 7.515625 
Q 37.359375 7.515625 41.375 12.890625 
Q 45.40625 18.265625 45.40625 27.984375 
z
M 54.390625 6.78125 
Q 54.390625 -7.171875 48.1875 -13.984375 
Q 42 -20.796875 29.203125 -20.796875 
Q 24.46875 -20.796875 20.265625 -20.09375 
Q 16.0625 -19.390625 12.109375 -17.921875 
L 12.109375 -9.1875 
Q 16.0625 -11.328125 19.921875 -12.34375 
Q 23.78125 -13.375 27.78125 -13.375 
Q 36.625 -13.375 41.015625 -8.765625 
Q 45.40625 -4.15625 45.40625 5.171875 
L 45.40625 9.625 
Q 42.625 4.78125 38.28125 2.390625 
Q 33.9375 0 27.875 0 
Q 17.828125 0 11.671875 7.65625 
Q 5.515625 15.328125 5.515625 27.984375 
Q 5.515625 40.671875 11.671875 48.328125 
Q 17.828125 56 27.875 56 
Q 33.9375 56 38.28125 53.609375 
Q 42.625 51.21875 45.40625 46.390625 
L 45.40625 54.6875 
L 54.390625 54.6875 
z
" id="DejaVuSans-103"/>
      <path d="M 39.40625 66.21875 
Q 28.65625 66.21875 22.328125 58.203125 
Q 16.015625 50.203125 16.015625 36.375 
Q 16.015625 22.609375 22.328125 14.59375 
Q 28.65625 6.59375 39.40625 6.59375 
Q 50.140625 6.59375 56.421875 14.59375 
Q 62.703125 22.609375 62.703125 36.375 
Q 62.703125 50.203125 56.421875 58.203125 
Q 50.140625 66.21875 39.40625 66.21875 
z
M 39.40625 74.21875 
Q 54.734375 74.21875 63.90625 63.9375 
Q 73.09375 53.65625 73.09375 36.375 
Q 73.09375 19.140625 63.90625 8.859375 
Q 54.734375 -1.421875 39.40625 -1.421875 
Q 24.03125 -1.421875 14.8125 8.828125 
Q 5.609375 19.09375 5.609375 36.375 
Q 5.609375 53.65625 14.8125 63.9375 
Q 24.03125 74.21875 39.40625 74.21875 
z
" id="DejaVuSans-79"/>
      <path d="M 9.421875 54.6875 
L 18.40625 54.6875 
L 18.40625 -0.984375 
Q 18.40625 -11.421875 14.421875 -16.109375 
Q 10.453125 -20.796875 1.609375 -20.796875 
L -1.8125 -20.796875 
L -1.8125 -13.1875 
L 0.59375 -13.1875 
Q 5.71875 -13.1875 7.5625 -10.8125 
Q 9.421875 -8.453125 9.421875 -0.984375 
z
M 9.421875 75.984375 
L 18.40625 75.984375 
L 18.40625 64.59375 
L 9.421875 64.59375 
z
" id="DejaVuSans-106"/>
     </defs>
     <g transform="translate(281.160625 38.916562)scale(0.1 -0.1)">
      <use xlink:href="#DejaVuSans-65"/>
      <use x="62.533203" xlink:href="#DejaVuSans-118"/>
      <use x="121.712891" xlink:href="#DejaVuSans-101"/>
      <use x="183.236328" xlink:href="#DejaVuSans-114"/>
      <use x="224.349609" xlink:href="#DejaVuSans-97"/>
      <use x="285.628906" xlink:href="#DejaVuSans-103"/>
      <use x="349.105469" xlink:href="#DejaVuSans-101"/>
      <use x="410.628906" xlink:href="#DejaVuSans-32"/>
      <use x="442.416016" xlink:href="#DejaVuSans-79"/>
      <use x="521.126953" xlink:href="#DejaVuSans-98"/>
      <use x="584.603516" xlink:href="#DejaVuSans-106"/>
      <use x="612.386719" xlink:href="#DejaVuSans-101"/>
      <use x="673.910156" xlink:href="#DejaVuSans-99"/>
      <use x="728.890625" xlink:href="#DejaVuSans-116"/>
      <use x="768.099609" xlink:href="#DejaVuSans-105"/>
      <use x="795.882812" xlink:href="#DejaVuSans-118"/>
      <use x="855.0625" xlink:href="#DejaVuSans-101"/>
      <use x="916.585938" xlink:href="#DejaVuSans-32"/>
      <use x="948.373047" xlink:href="#DejaVuSans-86"/>
      <use x="1009.03125" xlink:href="#DejaVuSans-97"/>
      <use x="1070.310547" xlink:href="#DejaVuSans-108"/>
      <use x="1098.09375" xlink:href="#DejaVuSans-117"/>
      <use x="1161.472656" xlink:href="#DejaVuSans-101"/>
     </g>
    </g>
    <g id="line2d_27">
     <path d="M 253.160625 50.094687 
L 273.160625 50.094687 
" style="fill:none;stroke:#ffa500;stroke-linecap:square;stroke-width:2;"/>
    </g>
    <g id="line2d_28"/>
    <g id="text_15">
     <!-- Best Objective Value -->
     <defs>
      <path d="M 19.671875 34.8125 
L 19.671875 8.109375 
L 35.5 8.109375 
Q 43.453125 8.109375 47.28125 11.40625 
Q 51.125 14.703125 51.125 21.484375 
Q 51.125 28.328125 47.28125 31.5625 
Q 43.453125 34.8125 35.5 34.8125 
z
M 19.671875 64.796875 
L 19.671875 42.828125 
L 34.28125 42.828125 
Q 41.5 42.828125 45.03125 45.53125 
Q 48.578125 48.25 48.578125 53.8125 
Q 48.578125 59.328125 45.03125 62.0625 
Q 41.5 64.796875 34.28125 64.796875 
z
M 9.8125 72.90625 
L 35.015625 72.90625 
Q 46.296875 72.90625 52.390625 68.21875 
Q 58.5 63.53125 58.5 54.890625 
Q 58.5 48.1875 55.375 44.234375 
Q 52.25 40.28125 46.1875 39.3125 
Q 53.46875 37.75 57.5 32.78125 
Q 61.53125 27.828125 61.53125 20.40625 
Q 61.53125 10.640625 54.890625 5.3125 
Q 48.25 0 35.984375 0 
L 9.8125 0 
z
" id="DejaVuSans-66"/>
      <path d="M 44.28125 53.078125 
L 44.28125 44.578125 
Q 40.484375 46.53125 36.375 47.5 
Q 32.28125 48.484375 27.875 48.484375 
Q 21.1875 48.484375 17.84375 46.4375 
Q 14.5 44.390625 14.5 40.28125 
Q 14.5 37.15625 16.890625 35.375 
Q 19.28125 33.59375 26.515625 31.984375 
L 29.59375 31.296875 
Q 39.15625 29.25 43.1875 25.515625 
Q 47.21875 21.78125 47.21875 15.09375 
Q 47.21875 7.46875 41.1875 3.015625 
Q 35.15625 -1.421875 24.609375 -1.421875 
Q 20.21875 -1.421875 15.453125 -0.5625 
Q 10.6875 0.296875 5.421875 2 
L 5.421875 11.28125 
Q 10.40625 8.6875 15.234375 7.390625 
Q 20.0625 6.109375 24.8125 6.109375 
Q 31.15625 6.109375 34.5625 8.28125 
Q 37.984375 10.453125 37.984375 14.40625 
Q 37.984375 18.0625 35.515625 20.015625 
Q 33.0625 21.96875 24.703125 23.78125 
L 21.578125 24.515625 
Q 13.234375 26.265625 9.515625 29.90625 
Q 5.8125 33.546875 5.8125 39.890625 
Q 5.8125 47.609375 11.28125 51.796875 
Q 16.75 56 26.8125 56 
Q 31.78125 56 36.171875 55.265625 
Q 40.578125 54.546875 44.28125 53.078125 
z
" id="DejaVuSans-115"/>
     </defs>
     <g transform="translate(281.160625 53.594687)scale(0.1 -0.1)">
      <use xlink:href="#DejaVuSans-66"/>
      <use x="68.603516" xlink:href="#DejaVuSans-101"/>
      <use x="130.126953" xlink:href="#DejaVuSans-115"/>
      <use x="182.226562" xlink:href="#DejaVuSans-116"/>
      <use x="221.435547" xlink:href="#DejaVuSans-32"/>
      <use x="253.222656" xlink:href="#DejaVuSans-79"/>
      <use x="331.933594" xlink:href="#DejaVuSans-98"/>
      <use x="395.410156" xlink:href="#DejaVuSans-106"/>
      <use x="423.193359" xlink:href="#DejaVuSans-101"/>
      <use x="484.716797" xlink:href="#DejaVuSans-99"/>
      <use x="539.697266" xlink:href="#DejaVuSans-116"/>
      <use x="578.90625" xlink:href="#DejaVuSans-105"/>
      <use x="606.689453" xlink:href="#DejaVuSans-118"/>
      <use x="665.869141" xlink:href="#DejaVuSans-101"/>
      <use x="727.392578" xlink:href="#DejaVuSans-32"/>
      <use x="759.179688" xlink:href="#DejaVuSans-86"/>
      <use x="819.837891" xlink:href="#DejaVuSans-97"/>
      <use x="881.117188" xlink:href="#DejaVuSans-108"/>
      <use x="908.900391" xlink:href="#DejaVuSans-117"/>
      <use x="972.279297" xlink:href="#DejaVuSans-101"/>
     </g>
    </g>
   </g>
  </g>
 </g>
 <defs>
  <clipPath id="p58055d2c75">
   <rect height="266.112" width="357.12" x="55.345313" y="22.318125"/>
  </clipPath>
 </defs>
</svg>
